<?xml version="1.0" encoding="utf-8"?>
<!-- Generator: Adobe Illustrator 23.0.5, SVG Export Plug-In . SVG Version: 6.00 Build 0)  -->
<svg version="1.1" xmlns="http://www.w3.org/2000/svg" xmlns:xlink="http://www.w3.org/1999/xlink" x="0px" y="0px"
	 viewBox="0 0 500 500" style="enable-background:new 0 0 500 500;" xml:space="preserve">
<style type="text/css">
	.st0{fill:#F5F5F5;}
	.st1{fill:#E0E0E0;}
	.st2{fill:#455A64;}
	.st3{fill:#37474F;}
	.st4{fill:#27DEBF;}
	.st5{fill:#263238;}
	.st6{opacity:0.8;fill:#FFFFFF;}
	.st7{opacity:0.15;}
	.st8{opacity:0.3;}
	.st9{opacity:0.5;}
	.st10{opacity:0.35;}
	.st11{opacity:0.23;}
	.st12{opacity:0.4;}
	.st13{opacity:0.6;fill:#FFFFFF;}
	.st14{opacity:0.3;fill:#FFFFFF;}
	.st15{opacity:0.1;}
	.st16{opacity:0.2;}
	.st17{fill:#FFFFFF;}
	.st18{opacity:0.8;clip-path:url(#XMLID_2_);fill:#FFFFFF;}
	.st19{clip-path:url(#XMLID_2_);}
	.st20{fill:#FFA8A7;}
	.st21{opacity:0.45;}
	.st22{fill:#F28F8F;}
	.st23{fill:#FAFAFA;}
	.st24{fill:#B16668;}
</style>
<g id="Floor">
	<ellipse id="Floor_4_" class="st0" cx="249.81" cy="337.53" rx="238.19" ry="137.52"/>
</g>
<g id="Shadows">
	<path id="Shadow_14_" class="st1" d="M421.52,361.94c-0.04-0.09-0.09-0.18-0.16-0.26c-0.04-0.06-0.08-0.1-0.13-0.17
		c-0.04-0.06-0.09-0.12-0.16-0.19c-0.05-0.05-0.11-0.11-0.18-0.17c-0.18-0.16-0.39-0.31-0.64-0.46L197.57,232.15
		c-1.98-1.14-5.2-1.14-7.18,0L74.51,298.87c-0.16,0.09-0.3,0.18-0.43,0.27c-0.05,0.04-0.1,0.07-0.15,0.11
		c-0.26,0.22-0.46,0.44-0.6,0.67c-0.04,0.05-0.07,0.11-0.1,0.18c-0.05,0.09-0.09,0.19-0.11,0.28c-0.02,0.07-0.04,0.15-0.05,0.22
		c-0.03,0.12-0.04,0.24-0.04,0.36c0,0.08,0.01,0.17,0.02,0.25c0.02,0.09,0.04,0.19,0.07,0.28c0.03,0.09,0.07,0.19,0.11,0.27
		c0.23,0.46,0.65,0.88,1.28,1.25l222.69,128.55c0.61,0.35,1.36,0.59,2.14,0.73c0.47,0.08,0.96,0.11,1.45,0.12
		c0.49,0,0.98-0.04,1.44-0.11c0.17-0.02,0.32-0.05,0.47-0.09c0.46-0.1,0.89-0.25,1.3-0.44c0.14-0.06,0.26-0.13,0.38-0.21
		l115.87-66.72C421.62,364.06,422.04,362.94,421.52,361.94z"/>
	<ellipse id="Shadow_10_" class="st1" cx="407.31" cy="298.93" rx="49.53" ry="28.6"/>
	<path id="Shadow_6_" class="st1" d="M146.8,447.06c-2.13,0-4.18-0.51-5.77-1.43l-99.19-57.27l-0.09-0.06
		c-1.93-1.15-3.06-2.96-3.05-4.93c0.02-1.98,1.2-3.79,3.24-4.97l65.44-37.78c1.58-0.91,3.62-1.42,5.75-1.42
		c2.13,0,4.18,0.5,5.77,1.42l99.13,57.22c2.05,1.19,3.22,3,3.23,4.99c0.01,1.89-1.04,3.63-2.88,4.81c-0.13,0.09-0.26,0.18-0.4,0.26
		l-49.52,28.57l-15.89,9.17C150.98,446.56,148.93,447.06,146.8,447.06C146.81,447.06,146.81,447.06,146.8,447.06z"/>
</g>
<g id="Device">
	<g id="Device_1_">
		<g id="Mobile">
			<g>
				<path id="XMLID_617_" class="st2" d="M411.86,347.2c-0.04-0.09-0.09-0.18-0.16-0.26c-0.04-0.06-0.08-0.1-0.13-0.17
					c-0.04-0.06-0.09-0.12-0.16-0.19c-0.05-0.05-0.11-0.11-0.18-0.17c-0.18-0.16-0.39-0.31-0.64-0.46L193.97,220.9
					c-1.98-1.14-5.2-1.14-7.18,0L80.58,282.21c-0.16,0.09-0.3,0.18-0.43,0.27c-0.05,0.04-0.1,0.07-0.15,0.11
					c-0.26,0.22-0.46,0.44-0.6,0.67c-0.04,0.05-0.07,0.11-0.1,0.18c-0.05,0.09-0.09,0.19-0.11,0.28c-0.02,0.07-0.04,0.15-0.05,0.22
					c-0.03,0.12-0.04,0.24-0.04,0.36c0,0.08,0.01,0.17,0.02,0.25c0.02,0.09,0.04,0.19,0.07,0.28c0.03,0.09,0.07,0.19,0.11,0.27
					c0.23,0.46,0.65,0.88,1.28,1.25l216.63,125.07c0.61,0.35,1.36,0.59,2.14,0.73c0.47,0.08,0.96,0.11,1.45,0.12
					c0.49,0,0.98-0.04,1.44-0.11c0.17-0.02,0.32-0.05,0.47-0.09c0.46-0.1,0.89-0.25,1.3-0.44c0.14-0.06,0.26-0.13,0.38-0.21
					l106.21-61.32C411.95,349.32,412.38,348.2,411.86,347.2z M388.53,342.76l-6.8,3.92l-90.49,52.21c-0.24,0.13-0.48,0.26-0.73,0.36
					c-1.49,0.61-3.17,0.61-4.66,0c-0.25-0.1-0.5-0.23-0.74-0.36L113.32,299.7l-8.31-4.79c-0.32-0.19-0.58-0.39-0.78-0.61
					c-0.86-0.94-0.59-2.15,0.78-2.95l97.24-56.14c1.24-0.71,2.51-1.21,3.78-1.05c0.31,0.04,0.61,0.12,0.92,0.25
					c0.16,0.06,0.32,0.13,0.48,0.23L388.53,339.2C389.9,339.99,389.9,341.97,388.53,342.76z"/>
			</g>
			<g>
				<path id="XMLID_615_" class="st3" d="M80.16,282.49c-1.79,1.27-3.17,3.82-3.18,5.95l0,4.74c0,2.3,1.6,5.08,3.59,6.23
					l216.61,125.06c0.75,0.44,1.67,0.7,2.64,0.8c0.32,0.04,0.63,0.06,0.96,0.06c0-0.01,0.01,0,0.01,0l0-13.05l0-0.01
					c-0.49-0.01-0.98-0.04-1.45-0.12c-0.78-0.13-1.53-0.38-2.14-0.73L80.58,286.35C78.75,285.3,78.6,283.63,80.16,282.49z"/>
			</g>
			<path class="st4" d="M354.49,372.67c-3.48-2-9.34-2-12.82,0c-0.89,0.52-1.56,1.12-1.92,1.75c-1.15,1.99,0.95,3.5,1.92,4.06
				c3.48,2,9.34,2,12.82,0c0.88-0.52,1.55-1.12,1.92-1.75C357.56,374.73,355.44,373.23,354.49,372.67z"/>
			<g id="XMLID_608_">
				<path id="XMLID_612_" class="st5" d="M142.37,257.18c0.97-0.56,0.97-1.47,0-2.03c-0.97-0.56-2.54-0.56-3.51,0
					c-0.97,0.56-0.97,1.47,0,2.03C139.83,257.74,141.4,257.74,142.37,257.18z"/>
				<g>
					<path id="XMLID_610_" class="st5" d="M136.86,266.78c0.86-0.5,0.86-1.3,0-1.8c-0.86-0.5-2.25-0.5-3.11,0
						c-0.86,0.5-0.86,1.3,0,1.8S136,267.28,136.86,266.78z"/>
					<path id="XMLID_609_" class="st5" d="M142.13,263.81l17.44-10.07c0.96-0.55,1-1.42,0.11-1.94c-0.9-0.52-2.4-0.49-3.35,0.06
						l-17.44,10.07c-0.96,0.55-1,1.42-0.11,1.94C139.67,264.39,141.17,264.36,142.13,263.81z"/>
				</g>
			</g>
			<g>
				<path id="XMLID_607_" class="st5" d="M411.07,346.29c1.49,1.16,1.33,2.79-0.47,3.82l-106.21,61.32
					c-0.99,0.57-2.29,0.85-3.59,0.85l0,13.05c1.31-0.01,2.59-0.29,3.58-0.87l106.21-61.3c1.98-1.14,3.59-3.92,3.59-6.22l0.01-4.76
					C414.18,350.09,412.83,347.57,411.07,346.29z"/>
			</g>
			<g>
				<g>
					<path class="st2" d="M131.24,319.27c1.03,0.59,1.86,1.97,1.86,3.08c0,0.54-0.19,0.91-0.51,1.08c-0.22,0.12-1.07,0.63-1.3,0.76
						c-0.34,0.19-0.81,0.15-1.34-0.15l-24.15-13.94c-1.03-0.59-1.86-1.97-1.86-3.08c0-0.51,0.18-0.87,0.47-1.06
						c0.23-0.14,1.11-0.65,1.34-0.78c0.34-0.19,0.81-0.15,1.34,0.15L131.24,319.27z"/>
					<path class="st5" d="M129.94,320.01l-24.15-13.94c-1.03-0.59-1.86-0.17-1.86,0.94c0,1.11,0.83,2.49,1.86,3.08l24.15,13.94
						c1.03,0.59,1.86,0.17,1.86-0.94C131.8,321.99,130.97,320.61,129.94,320.01z"/>
				</g>
				<g>
					<path class="st2" d="M98.91,300.6c1.03,0.59,1.86,1.97,1.86,3.08c0,0.54-0.19,0.91-0.51,1.08c-0.22,0.12-1.07,0.63-1.3,0.76
						c-0.34,0.19-0.81,0.15-1.34-0.15l-11.39-6.57c-1.03-0.59-1.86-1.97-1.86-3.08c0-0.51,0.18-0.87,0.47-1.06
						c0.23-0.14,1.11-0.65,1.34-0.78c0.34-0.19,0.81-0.15,1.34,0.15L98.91,300.6z"/>
					<path class="st5" d="M97.62,301.35l-11.39-6.57c-1.03-0.59-1.86-0.17-1.86,0.94c0,1.11,0.83,2.49,1.86,3.08l11.39,6.57
						c1.03,0.59,1.86,0.17,1.86-0.94C99.47,303.32,98.64,301.94,97.62,301.35z"/>
				</g>
			</g>
		</g>
		<g id="Window_4_">
			<path class="st4" d="M388.53,342.71l-6.8,3.92l-90.49,52.21c-0.24,0.13-0.48,0.26-0.73,0.36c-1.49,0.61-3.17,0.61-4.66,0
				c-0.25-0.1-0.5-0.23-0.74-0.36l-171.81-99.19l-8.31-4.79c-0.32-0.19-0.58-0.39-0.78-0.61c-0.86-0.94-0.59-2.15,0.78-2.95
				l97.24-56.14c1.24-0.71,2.51-1.21,3.78-1.05c0.31,0.04,0.61,0.12,0.92,0.25c0.16,0.06,0.32,0.13,0.48,0.23l181.11,104.57
				C389.9,339.94,389.9,341.92,388.53,342.71z"/>
			<path class="st6" d="M388.53,342.71l-6.8,3.92l-90.49,52.21c-0.24,0.13-0.48,0.26-0.73,0.36c-1.49,0.61-3.17,0.61-4.66,0
				c-0.25-0.1-0.5-0.23-0.74-0.36l-171.81-99.19l-8.31-4.79c-0.32-0.19-0.58-0.39-0.78-0.61c-0.86-0.94-0.59-2.15,0.78-2.95
				l97.24-56.14c1.24-0.71,2.51-1.21,3.78-1.05c0.31,0.04,0.61,0.12,0.92,0.25c0.16,0.06,0.32,0.13,0.48,0.23l181.11,104.57
				C389.9,339.94,389.9,341.92,388.53,342.71z"/>
			<g>
				<g id="XMLID_598_">
					<path id="XMLID_603_" class="st2" d="M125.54,287.51c-0.04,0-0.09-0.02-0.14-0.05l-0.48-0.28l-1.15,0.66
						c-0.06,0.04-0.13,0.04-0.2,0l-0.17-0.1c-0.04-0.02-0.07-0.04-0.08-0.06c-0.01-0.02-0.03-0.04-0.04-0.07l-0.49-1.69
						c-0.01-0.03-0.01-0.05,0-0.07c0-0.02,0.03-0.04,0.06-0.06l0.16-0.09c0.05-0.03,0.09-0.04,0.14-0.04c0.05,0,0.1,0.02,0.15,0.05
						l1.67,0.96l0.25-0.15c0.05-0.03,0.09-0.04,0.14-0.04c0.04,0,0.09,0.02,0.14,0.05l0.11,0.07c0.05,0.03,0.08,0.06,0.08,0.08
						c0,0.02-0.02,0.05-0.07,0.08l-0.25,0.15l0.48,0.28c0.05,0.03,0.08,0.06,0.08,0.08c0,0.02-0.02,0.05-0.07,0.08l-0.19,0.11
						C125.63,287.49,125.59,287.51,125.54,287.51z M124.59,286.91l-1.19-0.69l0.36,1.17L124.59,286.91z"/>
					<path id="XMLID_600_" class="st2" d="M126.62,286.55c-0.48-0.02-0.96-0.17-1.44-0.44c-0.47-0.27-0.73-0.55-0.76-0.83
						c-0.03-0.28,0.16-0.54,0.57-0.77c0.16-0.1,0.34-0.17,0.52-0.23c0.18-0.06,0.36-0.1,0.52-0.11c0.04,0,0.07,0,0.09,0.01
						c0.01,0.01,0.03,0.02,0.04,0.04l0.1,0.18c0.01,0.02,0.01,0.04-0.01,0.05c-0.01,0-0.03,0.01-0.07,0.02
						c-0.27,0.03-0.52,0.12-0.75,0.25c-0.28,0.16-0.4,0.34-0.38,0.53c0.02,0.2,0.22,0.4,0.58,0.61c0.37,0.21,0.72,0.33,1.05,0.34
						c0.33,0.02,0.63-0.05,0.9-0.21c0.1-0.06,0.18-0.12,0.26-0.18c0.07-0.06,0.12-0.12,0.15-0.17l-0.78-0.45l-0.48,0.28
						c-0.05,0.03-0.09,0.04-0.14,0.04c-0.04,0-0.09-0.02-0.14-0.05l-0.11-0.06c-0.05-0.03-0.08-0.06-0.08-0.08
						c0-0.02,0.02-0.05,0.07-0.08l0.77-0.44c0.05-0.03,0.11-0.04,0.16-0.04c0.05,0,0.11,0.02,0.17,0.06l1.11,0.64
						c0.04,0.02,0.07,0.04,0.08,0.06c0.01,0.02,0.02,0.04,0.01,0.06c-0.06,0.22-0.28,0.44-0.66,0.66
						C127.55,286.46,127.1,286.57,126.62,286.55z"/>
				</g>
				<g id="XMLID_575_">
					<g id="XMLID_596_">
						<path id="XMLID_597_" class="st2" d="M136.13,280.85c0.37,0.21,0.37,0.56,0,0.77c-0.37,0.21-0.97,0.21-1.33,0
							c-0.37-0.21-0.37-0.56,0-0.77C135.17,280.64,135.77,280.64,136.13,280.85z"/>
					</g>
					<g id="XMLID_580_">
						<g id="XMLID_593_">
							<path id="XMLID_594_" class="st2" d="M133.71,280.22c-0.67,0.39-0.88,0.94-0.62,1.43c0.05,0.1,0.22,0.16,0.4,0.15l0,0
								c0.23-0.02,0.38-0.14,0.31-0.27c-0.19-0.35-0.04-0.74,0.43-1.01c0.47-0.27,1.15-0.36,1.75-0.25
								c0.22,0.04,0.44-0.05,0.47-0.18l0,0c0.02-0.1-0.09-0.2-0.26-0.23C135.34,279.72,134.38,279.84,133.71,280.22z"/>
						</g>
					</g>
					<g id="XMLID_576_">
						<g id="XMLID_577_">
							<path id="XMLID_578_" class="st2" d="M132.64,279.61c-1,0.58-1.36,1.39-1.07,2.13c0.04,0.11,0.22,0.19,0.41,0.17l0,0
								c0.22-0.01,0.36-0.14,0.31-0.26c-0.24-0.61,0.05-1.27,0.87-1.74c0.82-0.47,1.97-0.64,3.02-0.5c0.21,0.03,0.42-0.06,0.45-0.18
								l0,0c0.02-0.11-0.11-0.21-0.3-0.24C135.05,278.82,133.64,279.03,132.64,279.61z"/>
						</g>
					</g>
				</g>
				<g>
					<path class="st2" d="M152.31,270.09c-0.05,0-0.08-0.02-0.11-0.04c-0.03-0.02-0.04-0.05-0.03-0.07l0.2-0.99
						c0.01-0.02,0.01-0.05,0.02-0.07c0.01-0.02,0.03-0.04,0.06-0.06l0.34-0.2c0.03-0.02,0.07-0.03,0.12-0.03
						c0.05,0,0.09,0.01,0.12,0.03l2.85,1.65c0.03,0.02,0.05,0.04,0.05,0.07c0,0.03-0.02,0.05-0.05,0.07l-0.36,0.21
						c-0.03,0.02-0.07,0.03-0.12,0.03c-0.05,0-0.09-0.01-0.12-0.03l-2.18-1.26l-0.14,0.64c-0.01,0.03-0.03,0.05-0.06,0.06
						c-0.03,0.02-0.08,0.02-0.13,0.02L152.31,270.09z"/>
					<path class="st2" d="M154.55,268.8c-0.05,0-0.08-0.02-0.11-0.04c-0.03-0.02-0.04-0.04-0.03-0.07l0.2-0.99
						c0.01-0.02,0.01-0.05,0.02-0.07c0.01-0.02,0.03-0.04,0.06-0.06l0.34-0.2c0.03-0.02,0.07-0.03,0.12-0.03
						c0.05,0,0.09,0.01,0.12,0.03l2.85,1.65c0.03,0.02,0.05,0.04,0.05,0.07c0,0.03-0.02,0.05-0.05,0.07l-0.36,0.21
						c-0.03,0.02-0.07,0.03-0.12,0.03c-0.05,0-0.09-0.01-0.12-0.03l-2.18-1.26l-0.14,0.64c-0.01,0.03-0.03,0.05-0.06,0.06
						c-0.04,0.02-0.08,0.02-0.13,0.02L154.55,268.8z"/>
					<path class="st2" d="M157.35,267.04c0.03-0.02,0.07-0.03,0.12-0.03c0.05,0,0.09,0.01,0.12,0.03l0.43,0.25
						c0.03,0.02,0.05,0.04,0.05,0.07c0,0.03-0.02,0.05-0.05,0.07l-0.41,0.24c-0.03,0.02-0.07,0.03-0.12,0.03
						c-0.05,0-0.09-0.01-0.12-0.03l-0.43-0.25c-0.03-0.02-0.05-0.04-0.05-0.07c0-0.03,0.02-0.05,0.05-0.07L157.35,267.04z
						 M158.9,267.93c0.03-0.02,0.07-0.03,0.12-0.03c0.05,0,0.09,0.01,0.12,0.03l0.43,0.25c0.03,0.02,0.05,0.04,0.05,0.07
						c0,0.03-0.02,0.05-0.05,0.07l-0.41,0.24c-0.03,0.02-0.07,0.03-0.12,0.03c-0.05,0-0.09-0.01-0.12-0.03l-0.43-0.25
						c-0.03-0.02-0.05-0.04-0.05-0.07c0-0.03,0.02-0.05,0.05-0.07L158.9,267.93z"/>
					<path class="st2" d="M161.93,266.95c-0.03,0.02-0.07,0.03-0.12,0.03c-0.05,0-0.09-0.01-0.12-0.03l-0.53-0.31l-1.37,0.79
						c-0.03,0.02-0.07,0.03-0.12,0.03c-0.05,0-0.09-0.01-0.12-0.03l-0.31-0.18c-0.04-0.02-0.07-0.05-0.08-0.08
						c-0.01-0.03-0.02-0.06-0.03-0.1l-0.34-1.75c-0.01-0.08,0.01-0.13,0.07-0.17l0.34-0.19c0.03-0.02,0.07-0.03,0.12-0.03
						c0.05,0,0.09,0.01,0.12,0.03l1.77,1.02l0.38-0.22c0.03-0.02,0.07-0.03,0.12-0.03c0.05,0,0.09,0.01,0.12,0.03l0.31,0.18
						c0.03,0.02,0.05,0.04,0.05,0.07c0,0.03-0.02,0.05-0.05,0.07l-0.38,0.22l0.53,0.31c0.03,0.02,0.05,0.04,0.05,0.07
						c0,0.03-0.02,0.05-0.05,0.07L161.93,266.95z M160.6,266.33l-0.94-0.55l0.19,0.98L160.6,266.33z"/>
					<path class="st2" d="M160.73,264.22c-0.03-0.02-0.05-0.04-0.05-0.07c0-0.03,0.02-0.05,0.05-0.07l1.66-0.96
						c0.03-0.02,0.07-0.03,0.12-0.03c0.05,0,0.09,0.01,0.12,0.03l0.31,0.18c0.03,0.02,0.05,0.04,0.05,0.07
						c0,0.03-0.02,0.05-0.05,0.07l-1.24,0.72l0.52,0.35c0.05-0.06,0.11-0.12,0.18-0.17c0.07-0.05,0.13-0.09,0.18-0.12
						c0.16-0.1,0.34-0.17,0.52-0.23c0.19-0.06,0.37-0.09,0.56-0.1c0.19-0.01,0.38,0.01,0.56,0.04c0.19,0.04,0.36,0.11,0.53,0.2
						c0.19,0.11,0.32,0.22,0.39,0.33c0.07,0.11,0.1,0.22,0.08,0.33c-0.02,0.11-0.08,0.22-0.18,0.32c-0.1,0.1-0.23,0.2-0.39,0.29
						c-0.2,0.12-0.4,0.2-0.59,0.26c-0.19,0.06-0.38,0.09-0.55,0.1c-0.18,0.01-0.34,0-0.49-0.04c-0.15-0.03-0.29-0.08-0.41-0.14
						c-0.04-0.02-0.06-0.04-0.05-0.07c0-0.03,0.02-0.05,0.05-0.07l0.36-0.21c0.03-0.02,0.07-0.03,0.11-0.03c0.04,0,0.08,0,0.13,0.02
						c0.09,0.03,0.17,0.05,0.25,0.05c0.08,0,0.16,0,0.23-0.02c0.08-0.01,0.15-0.04,0.22-0.07c0.07-0.03,0.14-0.07,0.21-0.1
						c0.17-0.1,0.26-0.2,0.27-0.31c0.01-0.11-0.06-0.21-0.22-0.31c-0.13-0.08-0.3-0.11-0.49-0.1c-0.19,0.01-0.37,0.06-0.54,0.16
						c-0.09,0.05-0.15,0.1-0.19,0.13c-0.04,0.04-0.06,0.07-0.08,0.1c-0.01,0.03-0.03,0.05-0.04,0.08c-0.01,0.02-0.04,0.05-0.08,0.07
						l-0.41,0.23c-0.03,0.02-0.07,0.03-0.12,0.03c-0.05,0-0.09-0.01-0.12-0.03L160.73,264.22z"/>
				</g>
				<g>
					<polygon class="st2" points="113.2,295.04 112.28,294.51 113.5,293.8 114.42,294.34 					"/>
					<polygon class="st2" points="115.04,293.98 113.2,292.92 114.42,292.21 116.26,293.27 					"/>
					<polygon class="st2" points="116.88,292.92 114.12,291.32 115.34,290.62 118.1,292.21 					"/>
					<polygon class="st2" points="118.72,291.86 115.04,289.73 116.26,289.02 119.95,291.15 					"/>
				</g>
				<g id="XMLID_557_">
					<path id="XMLID_571_" class="st2" d="M201.9,240.38c-0.3-0.02-0.56,0.01-0.72,0.11l-4.59,2.64c-0.3,0.17-0.22,0.48,0.18,0.71
						l1.67,0.97c0.22,0.13,0.51,0.21,0.81,0.24c0.13,0.01,0.25,0.01,0.36,0c0.14-0.02,0.27-0.05,0.36-0.11l4.59-2.64
						c0.3-0.17,0.22-0.48-0.18-0.71l-1.67-0.97C202.49,240.49,202.2,240.41,201.9,240.38z M199.2,244.88
						c-0.11-0.01-0.24-0.05-0.35-0.11l-1.67-0.97c-0.29-0.17-0.35-0.42-0.13-0.54l4.59-2.64c0.05-0.03,0.12-0.05,0.19-0.06
						c0.04,0,0.08-0.01,0.12,0c0.11,0.01,0.24,0.05,0.35,0.11l1.67,0.97c0.29,0.17,0.35,0.42,0.13,0.54l-4.59,2.64
						C199.42,244.86,199.31,244.89,199.2,244.88z"/>
					<g id="XMLID_568_">
						<path class="st2" d="M198.21,242.92l1.98,1.14l-0.72,0.41c-0.06,0.04-0.2,0.05-0.24,0.02l-1.47-0.85
							c-0.21-0.12-0.26-0.31-0.1-0.4L198.21,242.92z"/>
						<polygon class="st2" points="198.55,242.73 199.41,242.23 201.39,243.37 200.52,243.87 						"/>
						<polygon class="st2" points="199.75,242.04 200.61,241.54 202.59,242.69 201.73,243.18 						"/>
						<path class="st2" d="M201.93,240.93l1.43,0.82c0.26,0.15,0.21,0.37-0.15,0.57l-0.29,0.17l-1.98-1.14l0.69-0.4
							C201.71,240.91,201.88,240.9,201.93,240.93z"/>
					</g>
					<g id="XMLID_564_">
						<path id="XMLID_567_" class="st2" d="M202.89,240.52c0.13-0.07,0.51,0.03,0.85,0.23l0.31,0.18c0.34,0.2,0.52,0.42,0.4,0.5
							l-0.22,0.14l-1.57-0.92C202.66,240.66,202.76,240.6,202.89,240.52z"/>
					</g>
				</g>
				<polygon class="st2" points="190.21,248.1 193.77,245.01 195.65,247.68 193.19,247.01 				"/>
			</g>
		</g>
		<g id="Button">
			<g id="XMLID_606_">
				<path id="XMLID_618_" class="st4" d="M265.96,378.05v0.87c0,1.4,0.98,3.1,2.19,3.8l17.16,9.9c1.21,0.7,3.17,0.7,4.38,0
					l84.57-48.86c1.21-0.7,2.19-2.4,2.19-3.8v-0.87c0-1.4-0.98-3.1-2.19-3.8l-17.16-9.9c-1.21-0.7-3.17-0.7-4.38,0l-84.57,48.86
					C266.94,374.96,265.96,376.66,265.96,378.05z"/>
				<path id="XMLID_616_" class="st7" d="M374.55,335.5c0.91,0.7,0.81,1.7-0.29,2.34l-84.58,48.86c-0.6,0.35-1.4,0.52-2.19,0.53
					l0,5.92c0.79,0.01,1.58-0.17,2.2-0.52l84.56-48.85c1.21-0.7,2.2-2.4,2.19-3.8l0-0.87C376.45,337.82,375.63,336.28,374.55,335.5z
					"/>
				<path id="XMLID_614_" class="st8" d="M267.82,374.49c-1.05,0.79-1.86,2.3-1.85,3.55l-0.01,0.88c0,1.39,0.99,3.09,2.2,3.79
					l17.15,9.9c0.61,0.35,1.4,0.53,2.19,0.52l0-5.92c-0.79-0.01-1.59-0.18-2.19-0.52l-17.16-9.9
					C267.06,376.17,266.95,375.19,267.82,374.49z"/>
			</g>
			<g>
				<g>
					<path class="st2" d="M293.21,368.25c0.14-0.08,0.29-0.12,0.44-0.12c0.15,0,0.28,0.02,0.39,0.05l9,2.52
						c0.1,0.02,0.17,0.05,0.2,0.07c0.06,0.04,0.1,0.08,0.1,0.13s-0.03,0.1-0.1,0.13l-1.34,0.77c-0.14,0.08-0.27,0.12-0.39,0.12
						c-0.12,0-0.22-0.01-0.29-0.04l-1.18-0.34l-2.82,1.63l0.58,0.68c0.04,0.04,0.06,0.1,0.06,0.17c0,0.07-0.07,0.14-0.21,0.23
						l-1.34,0.77c-0.06,0.04-0.14,0.06-0.23,0.05c-0.09,0-0.17-0.02-0.23-0.05c-0.03-0.02-0.07-0.06-0.12-0.12l-4.37-5.2
						c-0.05-0.06-0.08-0.14-0.08-0.22c0-0.09,0.06-0.17,0.21-0.25L293.21,368.25z M296.13,371.92l1.72-0.99l-3.41-0.97
						L296.13,371.92z"/>
					<path class="st2" d="M300,364.33c0.49-0.28,1.01-0.5,1.55-0.65c0.55-0.15,1.1-0.23,1.66-0.25c0.56-0.02,1.1,0.03,1.63,0.14
						c0.53,0.11,1.02,0.29,1.47,0.53c0.16,0.08,0.29,0.16,0.42,0.23c0.12,0.07,0.24,0.14,0.36,0.21c0.11,0.07,0.23,0.13,0.35,0.2
						c0.12,0.07,0.25,0.15,0.38,0.23c0.42,0.27,0.73,0.55,0.92,0.85c0.2,0.3,0.29,0.61,0.26,0.93c-0.03,0.32-0.16,0.63-0.42,0.94
						c-0.25,0.31-0.62,0.61-1.11,0.89l-2.87,1.65c-0.08,0.04-0.17,0.07-0.29,0.07c-0.11,0-0.21-0.02-0.29-0.07l-6.86-3.96
						c-0.08-0.04-0.12-0.1-0.12-0.17c0-0.07,0.04-0.12,0.12-0.16L300,364.33z M304.31,365.21c-0.86-0.45-1.74-0.4-2.66,0.13
						l-1.08,0.62l4.03,2.33l1.13-0.66c0.89-0.51,0.95-1.02,0.17-1.51c-0.14-0.09-0.28-0.17-0.41-0.25
						c-0.13-0.07-0.26-0.15-0.38-0.22c-0.12-0.07-0.25-0.14-0.38-0.22C304.61,365.37,304.47,365.3,304.31,365.21z"/>
					<path class="st2" d="M307.67,359.9c0.49-0.28,1.01-0.5,1.56-0.65c0.55-0.15,1.1-0.23,1.66-0.25c0.56-0.02,1.1,0.03,1.63,0.14
						c0.53,0.11,1.02,0.29,1.47,0.53c0.16,0.08,0.3,0.16,0.42,0.23c0.12,0.07,0.24,0.14,0.35,0.21c0.11,0.07,0.23,0.13,0.35,0.2
						c0.12,0.07,0.25,0.15,0.38,0.23c0.42,0.27,0.72,0.55,0.92,0.85c0.2,0.3,0.28,0.61,0.26,0.93c-0.02,0.32-0.16,0.63-0.42,0.94
						c-0.25,0.31-0.62,0.61-1.11,0.89l-2.87,1.65c-0.08,0.04-0.17,0.07-0.29,0.07c-0.11,0-0.21-0.02-0.29-0.07l-6.86-3.96
						c-0.08-0.04-0.12-0.1-0.12-0.17c0-0.07,0.04-0.12,0.12-0.16L307.67,359.9z M311.98,360.78c-0.86-0.45-1.74-0.4-2.66,0.13
						l-1.08,0.62l4.03,2.33l1.14-0.66c0.89-0.51,0.95-1.02,0.17-1.51c-0.14-0.09-0.28-0.17-0.41-0.25
						c-0.13-0.07-0.26-0.15-0.38-0.22c-0.12-0.07-0.25-0.14-0.38-0.22C312.28,360.94,312.14,360.87,311.98,360.78z"/>
					<path class="st2" d="M319.7,352.96c0.08-0.05,0.17-0.07,0.29-0.07c0.11,0,0.21,0.02,0.29,0.07l1.13,0.65
						c0.08,0.05,0.12,0.1,0.12,0.17s-0.04,0.12-0.12,0.17l-1.87,1.08l5.44,3.14c0.08,0.04,0.12,0.1,0.12,0.17
						c0,0.07-0.04,0.12-0.12,0.17l-1.39,0.8c-0.08,0.05-0.17,0.07-0.29,0.07c-0.11,0-0.21-0.02-0.29-0.07l-5.44-3.14l-1.87,1.08
						c-0.08,0.04-0.17,0.07-0.29,0.07c-0.11,0-0.21-0.02-0.29-0.07l-1.13-0.65c-0.08-0.05-0.12-0.1-0.12-0.17
						c0-0.06,0.04-0.12,0.12-0.17L319.7,352.96z"/>
					<path class="st2" d="M323.34,354.06c-0.37-0.24-0.66-0.51-0.86-0.8c-0.2-0.29-0.29-0.59-0.27-0.9c0.02-0.31,0.15-0.62,0.4-0.94
						c0.25-0.32,0.63-0.63,1.16-0.93c0.52-0.3,1.05-0.52,1.61-0.66c0.55-0.15,1.1-0.22,1.64-0.24c0.54-0.01,1.06,0.04,1.56,0.15
						c0.5,0.11,0.96,0.28,1.38,0.5c0.32,0.17,0.64,0.35,0.98,0.54c0.33,0.19,0.64,0.38,0.91,0.55c0.37,0.24,0.66,0.51,0.86,0.8
						c0.2,0.29,0.29,0.59,0.27,0.9c-0.02,0.31-0.15,0.63-0.41,0.95c-0.26,0.32-0.64,0.63-1.16,0.92c-0.52,0.3-1.06,0.53-1.61,0.67
						c-0.55,0.14-1.09,0.22-1.63,0.23c-0.54,0.01-1.06-0.04-1.57-0.16c-0.5-0.11-0.96-0.28-1.38-0.5c-0.31-0.16-0.62-0.33-0.96-0.53
						C323.94,354.43,323.63,354.24,323.34,354.06z M329.83,352.43c-0.12-0.08-0.25-0.16-0.4-0.26c-0.15-0.09-0.3-0.19-0.47-0.28
						c-0.16-0.09-0.32-0.18-0.48-0.27c-0.16-0.08-0.3-0.16-0.43-0.22c-0.19-0.09-0.39-0.17-0.6-0.22c-0.21-0.05-0.42-0.08-0.64-0.08
						c-0.22,0-0.44,0.03-0.67,0.09c-0.23,0.06-0.45,0.15-0.67,0.28c-0.22,0.13-0.38,0.26-0.48,0.39c-0.1,0.13-0.15,0.26-0.15,0.39
						c0,0.13,0.04,0.25,0.13,0.37c0.09,0.12,0.21,0.24,0.38,0.35c0.11,0.08,0.23,0.16,0.38,0.25c0.15,0.09,0.31,0.18,0.47,0.28
						c0.16,0.09,0.32,0.18,0.48,0.27c0.16,0.09,0.31,0.17,0.45,0.23c0.38,0.19,0.8,0.29,1.25,0.3c0.45,0.01,0.89-0.11,1.33-0.37
						c0.44-0.25,0.65-0.51,0.63-0.77C330.32,352.89,330.15,352.65,329.83,352.43z"/>
					<path class="st2" d="M335.21,347.26c0.08,0.06,0.21,0.13,0.37,0.23c0.16,0.1,0.33,0.19,0.5,0.29c0.17,0.1,0.35,0.2,0.51,0.29
						c0.17,0.09,0.3,0.17,0.4,0.21c0.18,0.09,0.36,0.16,0.56,0.22c0.2,0.06,0.41,0.09,0.63,0.09c0.22,0,0.44-0.02,0.67-0.08
						c0.23-0.05,0.47-0.15,0.71-0.29c0.24-0.14,0.41-0.27,0.51-0.39c0.1-0.12,0.16-0.24,0.18-0.34c0.02-0.1,0-0.2-0.04-0.29
						c-0.05-0.09-0.1-0.16-0.15-0.23c-0.08-0.09-0.12-0.15-0.12-0.2c0-0.05,0.05-0.11,0.17-0.18l1.39-0.8
						c0.06-0.04,0.14-0.05,0.23-0.05c0.09,0,0.17,0.02,0.23,0.05c0.35,0.21,0.6,0.46,0.75,0.74c0.15,0.28,0.19,0.58,0.13,0.88
						c-0.06,0.31-0.23,0.61-0.49,0.92c-0.26,0.31-0.63,0.6-1.09,0.87c-0.51,0.29-1.04,0.51-1.59,0.66c-0.55,0.14-1.1,0.22-1.65,0.23
						c-0.54,0.01-1.07-0.04-1.57-0.15c-0.5-0.11-0.96-0.28-1.37-0.49c-0.31-0.16-0.62-0.33-0.96-0.53
						c-0.33-0.19-0.64-0.38-0.93-0.56c-0.37-0.23-0.66-0.49-0.85-0.79c-0.2-0.29-0.28-0.59-0.27-0.91c0.02-0.31,0.15-0.63,0.4-0.95
						c0.25-0.32,0.63-0.63,1.14-0.92c0.47-0.27,0.97-0.48,1.51-0.63c0.54-0.15,1.07-0.24,1.6-0.28c0.53-0.04,1.04-0.01,1.53,0.07
						c0.49,0.09,0.92,0.23,1.28,0.44c0.06,0.04,0.1,0.08,0.09,0.13c0,0.05-0.03,0.1-0.09,0.13l-1.39,0.8
						c-0.12,0.07-0.22,0.1-0.31,0.1c-0.09,0-0.21-0.03-0.36-0.07c-0.11-0.03-0.25-0.06-0.4-0.09c-0.15-0.03-0.32-0.04-0.5-0.02
						c-0.18,0.01-0.38,0.04-0.59,0.1c-0.21,0.06-0.44,0.16-0.68,0.29c-0.24,0.14-0.41,0.27-0.5,0.41c-0.1,0.13-0.14,0.26-0.13,0.39
						c0.01,0.13,0.06,0.25,0.16,0.36C334.94,347.05,335.07,347.16,335.21,347.26z"/>
					<path class="st2" d="M341.93,340.12c0.14-0.08,0.29-0.12,0.44-0.12c0.15,0,0.28,0.02,0.39,0.05l9,2.52
						c0.1,0.02,0.17,0.05,0.2,0.07c0.06,0.04,0.1,0.08,0.09,0.13c0,0.05-0.03,0.1-0.09,0.13l-1.34,0.77
						c-0.14,0.08-0.27,0.12-0.39,0.12c-0.12,0-0.22-0.01-0.29-0.04l-1.18-0.34l-2.82,1.63l0.58,0.68c0.04,0.04,0.06,0.1,0.06,0.17
						c0,0.07-0.07,0.15-0.21,0.23l-1.34,0.77c-0.06,0.04-0.14,0.05-0.23,0.05c-0.09,0-0.17-0.02-0.23-0.05
						c-0.04-0.02-0.08-0.06-0.12-0.12l-4.37-5.2c-0.05-0.06-0.08-0.14-0.08-0.22c0-0.09,0.07-0.17,0.21-0.25L341.93,340.12z
						 M344.85,343.79l1.72-0.99l-3.41-0.97L344.85,343.79z"/>
					<path class="st2" d="M348.79,336.16c0.47-0.27,0.93-0.48,1.4-0.64c0.47-0.15,0.93-0.25,1.39-0.29c0.46-0.03,0.91,0,1.35,0.1
						c0.45,0.1,0.87,0.27,1.28,0.5c0.53,0.31,0.86,0.62,0.99,0.95c0.13,0.33,0.09,0.66-0.13,1l3.84,0.7
						c0.06,0.01,0.11,0.03,0.15,0.05c0.06,0.04,0.09,0.08,0.09,0.13s-0.03,0.1-0.09,0.14l-1.44,0.83c-0.14,0.08-0.27,0.12-0.4,0.12
						c-0.12,0-0.24-0.01-0.33-0.03l-3.45-0.63l-0.98,0.56l2.27,1.31c0.08,0.05,0.12,0.1,0.12,0.17c0,0.07-0.04,0.12-0.12,0.17
						l-1.39,0.8c-0.08,0.04-0.17,0.07-0.29,0.07c-0.11,0-0.21-0.02-0.29-0.07l-6.86-3.96c-0.08-0.04-0.12-0.1-0.12-0.17
						c0-0.06,0.04-0.12,0.12-0.17L348.79,336.16z M350.8,338.71l1.2-0.69c0.3-0.17,0.49-0.35,0.57-0.52
						c0.08-0.18-0.02-0.35-0.32-0.52c-0.3-0.17-0.6-0.23-0.91-0.19c-0.31,0.05-0.61,0.16-0.91,0.33l-1.2,0.69L350.8,338.71z"/>
					<path class="st2" d="M358.39,330.62c0.08-0.05,0.17-0.07,0.29-0.07c0.11,0,0.21,0.02,0.29,0.07l1.13,0.65
						c0.08,0.04,0.12,0.1,0.12,0.17c0,0.07-0.04,0.12-0.12,0.17l-1.87,1.08l5.44,3.14c0.08,0.05,0.12,0.1,0.12,0.17
						c0,0.07-0.04,0.12-0.12,0.17l-1.39,0.8c-0.08,0.04-0.17,0.07-0.29,0.07c-0.11,0-0.21-0.02-0.29-0.07l-5.44-3.14l-1.87,1.08
						c-0.08,0.04-0.17,0.07-0.29,0.07c-0.11,0-0.21-0.02-0.29-0.07l-1.12-0.65c-0.08-0.05-0.12-0.1-0.12-0.17
						c0-0.06,0.04-0.12,0.12-0.16L358.39,330.62z"/>
				</g>
				<path class="st2" d="M279.95,374.03c-2.68,1.55-2.68,4.06,0,5.61c2.68,1.55,7.03,1.55,9.71,0c2.68-1.55,2.68-4.06,0-5.61
					C286.98,372.48,282.63,372.48,279.95,374.03z M287.92,375.86l-1.8,1.04l1.8,1.04c0.33,0.19,0.33,0.5,0,0.69
					c-0.33,0.19-0.87,0.19-1.2,0l-1.8-1.04l-1.8,1.04c-0.33,0.19-0.87,0.19-1.2,0c-0.33-0.19-0.33-0.5,0-0.69l1.8-1.04l-1.8-1.04
					c-0.33-0.19-0.33-0.5,0-0.69c0.33-0.19,0.87-0.19,1.2,0l1.8,1.04l1.8-1.04c0.33-0.19,0.87-0.19,1.2,0
					C288.25,375.36,288.25,375.67,287.92,375.86z"/>
			</g>
		</g>
	</g>
</g>
<g id="Cart_1_">
	<g id="Cart">
		<g>
			<g>
				<path id="XMLID_570_" class="st3" d="M298.2,308.63c0.03-4.29-2.95-9.53-6.66-11.7c-1.94-1.14-3.69-1.19-4.93-0.38l0,0
					l-4.56,2.56l9.55,16.46l4.52-2.56l-0.01-0.01C297.38,312.33,298.18,310.82,298.2,308.63z"/>
				<path id="XMLID_569_" class="st2" d="M286.81,299.61c3.7,2.17,6.68,7.41,6.66,11.7c-0.03,4.29-3.05,6.01-6.76,3.84
					c-3.7-2.17-6.68-7.41-6.66-11.7C280.08,299.16,283.11,297.44,286.81,299.61z"/>
				<path id="XMLID_527_" class="st5" d="M284.49,306.06c0.01-1.68,1.04-2.44,2.29-1.71c1.25,0.73,2.26,2.69,2.25,4.37
					c-0.01,1.68-1.04,2.44-2.29,1.71C285.49,309.69,284.48,307.74,284.49,306.06z"/>
				<path class="st7" d="M293.47,311.31c0.01-1.45-0.33-3-0.91-4.5l-11.57-6.71c-0.58,0.81-0.92,1.94-0.93,3.36
					c0,0.05,0.01,0.11,0.01,0.16l13.4,7.78C293.46,311.37,293.47,311.34,293.47,311.31z"/>
			</g>
			<g>
				<path class="st2" d="M250.32,345.22c-2.54,0.14-5.12-0.27-7.12-1.28l-63.04-36.32c-3.81-1.92-8.09-6.9-8.35-11.61l-1.94-44.91
					l3.51-0.2l1.94,44.91c0.18,3.21,3.54,7.22,6.42,8.67l63.04,36.32c2.92,1.47,7.86,1.18,10.58-0.61l42.04-24.22
					c1.01-0.66,1.58-1.45,1.54-2.11c-0.04-0.66-0.67-1.34-1.73-1.87l-67.49-39.18c-3.8-1.91-8.06-6.9-8.33-11.62l-0.94-24.91
					l3.51-0.2l0.94,24.91c0.18,3.21,3.53,7.23,6.39,8.67l67.49,39.18c2.25,1.13,3.56,2.84,3.67,4.82c0.11,1.96-1.03,3.87-3.13,5.25
					l-42.04,24.22C255.41,344.36,252.88,345.07,250.32,345.22z"/>
			</g>
			<g>
				<path id="XMLID_1043_" class="st3" d="M238.98,344.21c0.03-4.29-2.95-9.53-6.66-11.7c-1.94-1.14-3.69-1.19-4.93-0.38l0,0
					l-4.56,2.56l9.55,16.46l4.52-2.56l-0.01-0.01C238.16,347.91,238.97,346.4,238.98,344.21z"/>
				<path id="XMLID_555_" class="st2" d="M227.59,335.19c3.7,2.17,6.68,7.41,6.66,11.7c-0.03,4.29-3.05,6.01-6.76,3.84
					c-3.7-2.17-6.68-7.41-6.66-11.7C220.87,334.75,223.89,333.02,227.59,335.19z"/>
				<path id="XMLID_536_" class="st5" d="M225.27,341.64c0.01-1.68,1.04-2.44,2.29-1.71c1.25,0.73,2.26,2.69,2.25,4.37
					c-0.01,1.68-1.04,2.44-2.29,1.71C226.27,345.27,225.26,343.31,225.27,341.64z"/>
			</g>
			<g>
				<path id="XMLID_1033_" class="st3" d="M192.42,317.36c0.04-4.29-2.94-9.54-6.63-11.71c-1.94-1.14-3.69-1.2-4.93-0.39l0,0
					l-4.56,2.55l9.52,16.48l4.52-2.55l-0.01-0.01C191.6,321.06,192.4,319.55,192.42,317.36z"/>
				<path id="XMLID_1032_" class="st2" d="M181.05,308.33c3.7,2.18,6.67,7.42,6.63,11.71c-0.03,4.29-3.06,6.01-6.76,3.83
					c-3.7-2.18-6.67-7.42-6.63-11.71C174.32,307.86,177.35,306.15,181.05,308.33z"/>
				<path id="XMLID_1031_" class="st5" d="M178.72,314.76c0.01-1.68,1.04-2.44,2.29-1.7c1.25,0.74,2.26,2.69,2.24,4.37
					c-0.01,1.68-1.04,2.44-2.29,1.7C179.71,318.4,178.71,316.44,178.72,314.76z"/>
			</g>
		</g>
		<g id="XMLID_524_">
			<path id="XMLID_525_" class="st2" d="M162.38,196.68c-1.34-4.35,0.68-9.96,4.49-12.46l41.91-23.69c3.81-2.5,7.98-0.76,9.32,3.59
				l2.91,9.43l-2.88,1.68l-3.11-9.53c-0.74-2.31-3-3.1-5.02-1.76l-40.81,23.08c-2.44,1.62-3.76,5.24-2.94,8.04l2.46,9.05l-3.43,2
				L162.38,196.68z"/>
		</g>
		<g>
			<g>
				<polygon id="XMLID_963_" class="st4" points="227.18,242.12 170.88,274.63 253.16,322.13 309.46,289.62 				"/>
				<polygon id="XMLID_958_" class="st9" points="227.18,242.12 170.88,274.63 253.16,322.13 309.46,289.62 				"/>
			</g>
			<g>
				<polygon id="XMLID_516_" class="st4" points="165.29,206.11 221.01,173.55 227.18,242.12 170.88,274.63 				"/>
				<polygon id="XMLID_320_" class="st10" points="165.29,206.11 221.01,173.55 227.18,242.12 170.88,274.63 				"/>
			</g>
			<g>
				<path id="XMLID_500_" class="st4" d="M221.01,173.56l6.17,68.57l82.28,47.49l12.99-57.51L221.01,173.56z M249.78,239.48
					c-2.27,0.87-4.91-0.49-5.9-3.06l-13.6-35.29c-0.99-2.56,0.05-5.35,2.32-6.22c2.27-0.87,4.91,0.49,5.9,3.06l13.6,35.29
					C253.09,235.82,252.05,238.6,249.78,239.48z M275.47,251.56c-2.27,0.87-4.91-0.49-5.9-3.05l-13.6-35.29
					c-0.99-2.56,0.05-5.35,2.32-6.22c2.27-0.87,4.91,0.49,5.9,3.06l13.6,35.29C278.78,247.9,277.74,250.69,275.47,251.56z
					 M301.16,263.65c-2.27,0.87-4.91-0.49-5.9-3.06l-13.6-35.29c-0.99-2.56,0.05-5.35,2.32-6.22c2.27-0.87,4.91,0.49,5.9,3.06
					l13.6,35.29C304.47,259.99,303.43,262.78,301.16,263.65z"/>
				<path id="XMLID_367_" class="st11" d="M221.01,173.56l6.17,68.57l82.28,47.49l12.99-57.51L221.01,173.56z M249.78,239.48
					c-2.27,0.87-4.91-0.49-5.9-3.06l-13.6-35.29c-0.99-2.56,0.05-5.35,2.32-6.22c2.27-0.87,4.91,0.49,5.9,3.06l13.6,35.29
					C253.09,235.82,252.05,238.6,249.78,239.48z M275.47,251.56c-2.27,0.87-4.91-0.49-5.9-3.05l-13.6-35.29
					c-0.99-2.56,0.05-5.35,2.32-6.22c2.27-0.87,4.91,0.49,5.9,3.06l13.6,35.29C278.78,247.9,277.74,250.69,275.47,251.56z
					 M301.16,263.65c-2.27,0.87-4.91-0.49-5.9-3.06l-13.6-35.29c-0.99-2.56,0.05-5.35,2.32-6.22c2.27-0.87,4.91,0.49,5.9,3.06
					l13.6,35.29C304.47,259.99,303.43,262.78,301.16,263.65z"/>
			</g>
			<g>
				<g>
					<path id="XMLID_574_" class="st4" d="M165.29,206.11l5.59,68.52l82.28,47.51l12.99-57.51L165.29,206.11z M197.77,273.56
						c-2.27,0.87-4.91-0.49-5.9-3.05l-13.6-35.29c-0.99-2.56,0.05-5.35,2.32-6.22c2.27-0.87,4.91,0.49,5.9,3.06l13.6,35.29
						C201.08,269.9,200.04,272.68,197.77,273.56z M223.46,285.64c-2.27,0.87-4.91-0.49-5.9-3.05l-13.6-35.29
						c-0.99-2.56,0.05-5.35,2.32-6.22c2.27-0.87,4.91,0.49,5.9,3.06l13.6,35.29C226.77,281.98,225.73,284.77,223.46,285.64z
						 M249.15,297.73c-2.27,0.87-4.91-0.49-5.9-3.06l-13.6-35.29c-0.99-2.56,0.05-5.35,2.32-6.22c2.27-0.87,4.91,0.49,5.9,3.06
						l13.6,35.29C252.46,294.07,251.42,296.86,249.15,297.73z"/>
				</g>
				<g class="st7">
					<path id="XMLID_670_" d="M165.29,206.11l5.59,68.52l82.28,47.51l12.99-57.51L165.29,206.11z M197.77,273.56
						c-2.27,0.87-4.91-0.49-5.9-3.05l-13.6-35.29c-0.99-2.56,0.05-5.35,2.32-6.22c2.27-0.87,4.91,0.49,5.9,3.06l13.6,35.29
						C201.08,269.9,200.04,272.68,197.77,273.56z M223.46,285.64c-2.27,0.87-4.91-0.49-5.9-3.05l-13.6-35.29
						c-0.99-2.56,0.05-5.35,2.32-6.22c2.27-0.87,4.91,0.49,5.9,3.06l13.6,35.29C226.77,281.98,225.73,284.77,223.46,285.64z
						 M249.15,297.73c-2.27,0.87-4.91-0.49-5.9-3.06l-13.6-35.29c-0.99-2.56,0.05-5.35,2.32-6.22c2.27-0.87,4.91,0.49,5.9,3.06
						l13.6,35.29C252.46,294.07,251.42,296.86,249.15,297.73z"/>
				</g>
				<g>
					<polygon id="XMLID_260_" class="st4" points="266.15,264.63 322.45,232.12 309.46,289.63 253.16,322.13 					"/>
					<polygon id="XMLID_259_" class="st12" points="266.15,264.63 322.45,232.12 309.46,289.63 253.16,322.13 					"/>
				</g>
			</g>
		</g>
	</g>
</g>
<g id="Arrow_1_">
	<g id="Arrow">
		<polygon class="st3" points="286.43,140.48 279.93,144.29 279.95,124.6 276.01,122.33 258.17,132.63 258.14,156.92 247.74,162.81 
			271.02,177.91 290.37,142.75 		"/>
		<polygon class="st2" points="262.11,134.9 262.08,159.19 251.68,165.09 271.02,177.91 290.37,142.75 279.92,148.89 279.95,124.6 
					"/>
		<polygon class="st5" points="258.17,132.63 262.11,134.9 262.08,159.19 258.14,156.92 		"/>
	</g>
</g>
<g id="Bag_1_">
	<g id="Bag">
		<polygon id="XMLID_679_" class="st4" points="177.57,155.77 233.95,123.22 229.25,55.4 177.57,85.24 		"/>
		<polygon id="XMLID_624_" class="st13" points="177.57,155.77 233.95,123.22 229.25,55.4 177.57,85.24 		"/>
		<polygon id="XMLID_673_" class="st4" points="177.57,85.24 177.57,79.82 163.47,77.1 215.15,47.26 219.85,55.4 229.25,55.4 		"/>
		<polygon id="XMLID_627_" class="st14" points="177.57,85.24 177.57,79.82 163.47,77.1 215.15,47.26 219.85,55.4 229.25,55.4 		"/>
		<polygon id="XMLID_671_" class="st4" points="215.15,47.26 215.15,63.54 219.85,60.83 219.85,55.4 		"/>
		<polygon id="XMLID_630_" class="st15" points="215.15,47.26 215.15,63.54 219.85,60.83 219.85,55.4 		"/>
		<polygon id="XMLID_669_" class="st4" points="229.25,55.4 219.85,55.4 219.85,60.83 		"/>
		<polygon id="XMLID_665_" class="st16" points="229.25,55.4 219.85,55.4 219.85,60.83 		"/>
		<polygon id="XMLID_667_" class="st4" points="163.47,77.1 158.77,144.92 177.57,155.77 177.57,85.24 177.57,79.82 		"/>
		<polygon id="XMLID_634_" class="st15" points="163.47,77.1 158.77,144.92 177.57,155.77 177.57,85.24 177.57,79.82 		"/>
		<polygon id="XMLID_666_" class="st4" points="177.57,79.82 168.17,150.34 177.57,155.77 		"/>
		<polygon id="XMLID_668_" class="st16" points="177.57,79.82 168.17,150.34 177.57,155.77 		"/>
		<polygon class="st4" points="177.57,155.77 168.95,144.46 158.77,144.92 		"/>
		<g>
			<path id="XMLID_658_" class="st3" d="M178.71,76.38c0,0.92,0.65,1.3,1.45,0.84c0.8-0.46,1.45-1.58,1.45-2.51
				c0-0.92-0.65-1.3-1.45-0.84C179.35,74.34,178.71,75.46,178.71,76.38z"/>
			<path id="XMLID_657_" class="st3" d="M197.94,65.53c0,0.92,0.65,1.3,1.45,0.84c0.8-0.46,1.45-1.58,1.45-2.51
				c0-0.92-0.65-1.3-1.45-0.84C198.59,63.48,197.94,64.61,197.94,65.53z"/>
			<g id="XMLID_635_">
				<path class="st3" d="M180.15,75.33c-0.27,0-0.49-0.22-0.49-0.49V63c0-5.16,4.42-11.92,9.86-15.06c3.03-1.75,5.9-2.09,7.89-0.94
					c1.58,0.91,2.45,2.7,2.45,5.02V64c0,0.27-0.22,0.49-0.49,0.49c-0.27,0-0.49-0.22-0.49-0.49V52.02c0-1.99-0.68-3.43-1.97-4.18
					c-1.68-0.97-4.2-0.63-6.92,0.94c-5.17,2.98-9.38,9.36-9.38,14.21v11.85C180.64,75.11,180.42,75.33,180.15,75.33z"/>
			</g>
		</g>
		<g>
			<path id="XMLID_663_" class="st2" d="M193.02,84.52c0,0.92,0.65,1.3,1.45,0.84c0.8-0.46,1.45-1.58,1.45-2.51
				c0-0.92-0.65-1.3-1.45-0.84C193.67,82.47,193.02,83.6,193.02,84.52z"/>
			<path id="XMLID_662_" class="st2" d="M212.26,73.67c0,0.92,0.65,1.3,1.45,0.84c0.8-0.46,1.45-1.58,1.45-2.51
				c0-0.92-0.65-1.3-1.45-0.84C212.91,71.62,212.26,72.74,212.26,73.67z"/>
			<g id="XMLID_656_">
				<path class="st2" d="M194.47,83.47c-0.27,0-0.49-0.22-0.49-0.49V71.13c0-5.16,4.42-11.92,9.86-15.06
					c3.03-1.75,5.9-2.09,7.89-0.94c1.58,0.91,2.45,2.7,2.45,5.02v11.98c0,0.27-0.22,0.49-0.49,0.49c-0.27,0-0.49-0.22-0.49-0.49
					V60.15c0-1.99-0.68-3.43-1.97-4.18c-1.68-0.97-4.2-0.63-6.92,0.94c-5.17,2.99-9.38,9.36-9.38,14.21v11.85
					C194.96,83.25,194.74,83.47,194.47,83.47z"/>
			</g>
		</g>
	</g>
</g>
<g id="Credit_Card">
	<g id="Card_1_">
		<path id="XMLID_861_" class="st4" d="M151.13,442.19l65.44-37.78c1.29-0.75,1.76-1.72,1.77-2.71c0.01-1,0.02-4.64,0.02-4.64
			c-0.02,0.03-1.75,2.5-1.78,2.52L167,428.19l-15.89,9.17c-2.38,1.38-6.23,1.38-8.61,0l-99.1-57.21c-0.03-0.02-1.68-1.96-1.72-1.98
			c0,0-0.09,3.42-0.05,4.56c0.02,0.83,0.69,1.63,1.76,2.26l99.11,57.2C144.88,443.58,148.74,443.57,151.13,442.19z"/>
		<path id="XMLID_854_" class="st7" d="M151.13,442.19l65.44-37.78c1.29-0.75,1.76-1.72,1.77-2.71c0.01-1,0.02-4.64,0.02-4.64
			c-0.02,0.03-1.75,2.5-1.78,2.52L167,428.19l-15.89,9.17c-2.38,1.38-6.23,1.38-8.61,0l-99.1-57.21c-0.03-0.02-1.68-1.96-1.72-1.98
			c0,0-0.09,3.42-0.05,4.56c0.02,0.83,0.69,1.63,1.76,2.26l99.11,57.2C144.88,443.58,148.74,443.57,151.13,442.19z"/>
		<path class="st3" d="M197.7,410.47L197.7,410.47v4.83l18.86-10.89c1.29-0.75,1.76-1.72,1.77-2.71c0.01-1,0.02-4.64,0.02-4.64
			c-0.02,0.03-1.75,2.5-1.78,2.52L197.7,410.47z"/>
		<path id="XMLID_860_" class="st4" d="M216.57,399.59c0.03-0.02,0.07-0.04,0.09-0.07c2.28-1.35,2.24-3.55-0.09-4.9l-99.12-57.22
			c-2.38-1.36-6.23-1.38-8.61,0L43.4,375.17c-2.35,1.36-2.37,3.55-0.09,4.91c0.03,0.02,0.06,0.04,0.09,0.06l99.1,57.21
			c2.38,1.38,6.23,1.38,8.61,0l15.89-9.17L216.57,399.59z"/>
		<path class="st2" d="M197.7,410.47l18.87-10.88c0.03-0.02,0.07-0.04,0.09-0.07c2.28-1.35,2.24-3.55-0.09-4.9l-99.12-57.22
			c-2.38-1.36-6.23-1.38-8.61,0l-18.86,10.89L197.7,410.47z"/>
		<path class="st7" d="M41.68,378.17c0,0-0.09,3.42-0.05,4.56c0.02,0.83,0.69,1.63,1.76,2.26l99.11,57.2
			c1.48,0.87,3.54,1.19,5.46,0.97l0-4.84c-1.92,0.22-3.98-0.11-5.47-0.97l-99.1-57.21C43.37,380.12,41.72,378.19,41.68,378.17z"/>
		<g id="XMLID_833_">
			<path class="st17" d="M73.76,371.69l-1.92-1.11c-0.09-0.05-0.13-0.11-0.14-0.17c-0.01-0.07,0.02-0.12,0.1-0.17
				c0.08-0.04,0.17-0.06,0.29-0.06c0.12,0,0.22,0.03,0.31,0.08l0.64,0.37l2.76-1.6c0.15-0.09,0.22-0.2,0.21-0.33
				c-0.02-0.13-0.11-0.25-0.28-0.35c0,0-0.01,0-0.01-0.01c-0.09-0.05-0.14-0.11-0.15-0.18c-0.01-0.07,0.03-0.12,0.1-0.16
				s0.17-0.06,0.29-0.06c0.12,0,0.22,0.03,0.31,0.08l0,0l0,0c0.35,0.2,0.55,0.44,0.58,0.71c0.03,0.27-0.1,0.49-0.41,0.67l-2.76,1.6
				l0.64,0.37c0.09,0.05,0.14,0.11,0.14,0.18c0.01,0.07-0.03,0.12-0.1,0.17c-0.08,0.04-0.17,0.06-0.29,0.06
				C73.94,371.77,73.84,371.74,73.76,371.69z"/>
			<path class="st17" d="M79.57,373.13l-1.28-0.74c-0.18-0.1-0.38-0.16-0.61-0.17c-0.23-0.01-0.42,0.03-0.58,0.12l-0.41,0.24
				c-0.04,0.02-0.05,0.05-0.05,0.08c0,0.03,0.03,0.06,0.07,0.09l2.72,1.57c0.09,0.05,0.13,0.11,0.14,0.18
				c0.01,0.07-0.03,0.12-0.1,0.17c-0.08,0.04-0.17,0.06-0.29,0.06c-0.12-0.01-0.22-0.03-0.31-0.08l-3.2-1.85
				c-0.09-0.05-0.13-0.11-0.14-0.18c-0.01-0.07,0.03-0.12,0.1-0.17l0.83-0.48c0.31-0.18,0.69-0.25,1.16-0.24
				c0.47,0.02,0.88,0.13,1.23,0.33l1.28,0.74c0.18,0.1,0.38,0.16,0.62,0.17c0.23,0.01,0.43-0.03,0.58-0.12l0.55-0.32
				c0.15-0.09,0.22-0.2,0.2-0.33c-0.02-0.13-0.12-0.25-0.29-0.36l-1.28-0.74c-0.18-0.1-0.38-0.16-0.61-0.17
				c-0.23-0.01-0.42,0.03-0.58,0.12c-0.08,0.04-0.17,0.06-0.29,0.06c-0.11,0-0.22-0.03-0.3-0.08c-0.09-0.05-0.14-0.11-0.15-0.18
				c-0.01-0.07,0.03-0.12,0.1-0.17c0.31-0.18,0.69-0.25,1.15-0.24c0.47,0.02,0.88,0.13,1.23,0.33l1.28,0.74
				c0.35,0.2,0.55,0.44,0.58,0.71c0.03,0.27-0.1,0.49-0.41,0.67l-0.55,0.32c-0.31,0.18-0.69,0.25-1.16,0.24
				C80.34,373.45,79.93,373.34,79.57,373.13z"/>
			<path class="st17" d="M85.68,376.98l-0.28,0.16c-0.31,0.18-0.69,0.25-1.16,0.24c-0.47-0.02-0.87-0.13-1.23-0.33l-1.28-0.74
				c-0.35-0.2-0.55-0.44-0.58-0.71c-0.03-0.27,0.1-0.49,0.41-0.67c0.07-0.04,0.17-0.06,0.29-0.06c0.12,0,0.22,0.03,0.31,0.08
				c0.09,0.05,0.14,0.11,0.14,0.18c0.01,0.07-0.02,0.13-0.1,0.17c-0.15,0.09-0.22,0.2-0.2,0.33c0.02,0.13,0.11,0.25,0.29,0.35
				l1.28,0.74c0.18,0.1,0.38,0.16,0.61,0.17c0.23,0.01,0.43-0.03,0.58-0.12l0.28-0.16c0.15-0.09,0.22-0.2,0.2-0.33
				c-0.02-0.13-0.11-0.25-0.29-0.35l-0.32-0.18c-0.09-0.05-0.14-0.11-0.15-0.18c-0.01-0.07,0.03-0.12,0.1-0.17
				c0.08-0.04,0.17-0.06,0.29-0.06c0.12,0,0.22,0.03,0.31,0.08l0.32,0.18c0.18,0.1,0.38,0.16,0.61,0.17
				c0.23,0.01,0.43-0.03,0.58-0.12l0.28-0.16c0.15-0.09,0.22-0.2,0.2-0.33c-0.02-0.13-0.11-0.25-0.29-0.35l-1.28-0.74
				c-0.18-0.1-0.38-0.16-0.61-0.17c-0.23-0.01-0.42,0.03-0.58,0.12c-0.08,0.04-0.18,0.06-0.29,0.06c-0.12-0.01-0.22-0.03-0.31-0.08
				c-0.09-0.05-0.14-0.11-0.14-0.18c-0.01-0.07,0.03-0.12,0.1-0.17c0.31-0.18,0.69-0.25,1.16-0.24c0.47,0.02,0.87,0.13,1.23,0.33
				l1.28,0.74c0.35,0.2,0.55,0.44,0.58,0.71s-0.1,0.49-0.41,0.67l-0.28,0.16c-0.16,0.09-0.35,0.16-0.57,0.2
				c-0.22,0.04-0.45,0.05-0.69,0.03c0.03,0.14,0.01,0.27-0.05,0.4C85.95,376.77,85.84,376.88,85.68,376.98z"/>
			<path class="st17" d="M89.39,380.62c-0.12-0.01-0.22-0.03-0.31-0.08c-0.09-0.05-0.14-0.11-0.14-0.18s0.03-0.12,0.1-0.17
				l1.53-0.89c-0.3-0.06-0.56-0.15-0.79-0.28l-1.28-0.74c-0.35-0.2-0.54-0.44-0.58-0.71c-0.03-0.27,0.1-0.49,0.41-0.67l1.38-0.8
				c0.07-0.04,0.17-0.06,0.29-0.06c0.12,0,0.22,0.03,0.31,0.08c0.09,0.05,0.14,0.11,0.15,0.18c0.01,0.07-0.02,0.12-0.1,0.17
				l-1.38,0.8c-0.15,0.09-0.22,0.2-0.2,0.33c0.02,0.13,0.11,0.25,0.29,0.35l1.28,0.74c0.18,0.1,0.38,0.16,0.61,0.17
				c0.23,0.01,0.43-0.03,0.58-0.12l1.38-0.8c0.07-0.04,0.17-0.06,0.29-0.06c0.12,0,0.22,0.03,0.31,0.08
				c0.09,0.05,0.14,0.11,0.15,0.18c0.01,0.07-0.02,0.12-0.1,0.17l-3.87,2.23C89.61,380.61,89.51,380.63,89.39,380.62z"/>
			<path class="st17" d="M99.33,383.1c-0.04,0.02-0.05,0.05-0.05,0.08c0,0.03,0.03,0.06,0.07,0.09l1.76,1.02
				c0.35,0.2,0.55,0.44,0.58,0.71c0.03,0.27-0.1,0.49-0.41,0.67l-0.55,0.32c-0.31,0.18-0.69,0.25-1.16,0.24
				c-0.47-0.02-0.87-0.13-1.23-0.33l-1.28-0.74c-0.35-0.2-0.54-0.44-0.58-0.71c-0.03-0.27,0.1-0.49,0.41-0.67
				c0.08-0.04,0.17-0.06,0.29-0.06c0.12,0.01,0.22,0.03,0.31,0.09c0.09,0.05,0.14,0.11,0.14,0.18c0.01,0.07-0.03,0.12-0.1,0.17
				c-0.15,0.09-0.22,0.2-0.2,0.33c0.02,0.13,0.11,0.25,0.29,0.35l1.28,0.74c0.18,0.1,0.38,0.16,0.61,0.17
				c0.23,0.01,0.43-0.03,0.58-0.12l0.55-0.32c0.15-0.09,0.22-0.2,0.2-0.33c-0.02-0.13-0.11-0.25-0.29-0.35l-1.92-1.11
				c-0.18-0.1-0.27-0.22-0.29-0.35c-0.02-0.13,0.05-0.24,0.2-0.33l1.38-0.8c0.08-0.04,0.17-0.07,0.29-0.06
				c0.11,0,0.22,0.03,0.31,0.08l3.19,1.84c0.09,0.05,0.13,0.11,0.15,0.18c0.01,0.07-0.02,0.12-0.1,0.17
				c-0.08,0.04-0.17,0.06-0.29,0.06c-0.12-0.01-0.22-0.03-0.31-0.08l-2.71-1.57c-0.04-0.02-0.09-0.04-0.15-0.04
				c-0.06,0-0.11,0.01-0.15,0.03L99.33,383.1z"/>
			<path class="st17" d="M104.94,386.5l1.28,0.74c0.36,0.21,0.55,0.44,0.58,0.71c0.03,0.27-0.1,0.49-0.41,0.67l-0.55,0.32
				c-0.31,0.18-0.69,0.25-1.16,0.23c-0.46-0.02-0.88-0.13-1.23-0.34l-1.28-0.74c-0.35-0.2-0.55-0.44-0.58-0.71
				c-0.03-0.27,0.1-0.49,0.41-0.67l2.21-1.28c0.31-0.18,0.69-0.25,1.16-0.24c0.47,0.02,0.87,0.13,1.23,0.33l1.28,0.74
				c0.36,0.21,0.55,0.44,0.58,0.71c0.03,0.27-0.1,0.49-0.41,0.67c-0.08,0.04-0.18,0.06-0.29,0.06c-0.12-0.01-0.22-0.03-0.31-0.08
				c-0.09-0.05-0.14-0.11-0.14-0.18c-0.01-0.07,0.03-0.12,0.1-0.17c0.15-0.09,0.22-0.2,0.2-0.33s-0.12-0.25-0.29-0.36l-1.28-0.74
				c-0.18-0.1-0.38-0.16-0.61-0.17c-0.23-0.01-0.42,0.03-0.58,0.12l-0.7,0.41C104.45,386.28,104.71,386.37,104.94,386.5z
				 M102.64,387.09c-0.15,0.09-0.22,0.2-0.2,0.33c0.02,0.13,0.11,0.25,0.29,0.35l1.28,0.74c0.18,0.1,0.39,0.16,0.62,0.17
				c0.23,0.01,0.42-0.03,0.58-0.12l0.55-0.32c0.15-0.09,0.22-0.2,0.2-0.33c-0.02-0.13-0.12-0.25-0.29-0.36l-1.28-0.74
				c-0.18-0.1-0.38-0.16-0.61-0.17c-0.23-0.01-0.42,0.03-0.58,0.12L102.64,387.09z"/>
			<path class="st17" d="M112.31,390.91l-3.79,0.53c-0.01,0-0.02,0-0.05,0.01c-0.03,0-0.05,0.01-0.07,0.01
				c-0.02,0-0.04,0.01-0.07,0.01c-0.03,0-0.06,0.01-0.08,0.01c-0.02,0-0.05,0-0.08,0c-0.03,0-0.06,0-0.09-0.01
				c-0.02,0-0.05-0.01-0.08-0.02c-0.03-0.01-0.05-0.02-0.07-0.03c-0.09-0.05-0.14-0.11-0.16-0.17c-0.02-0.06,0.02-0.12,0.12-0.17
				c0.06-0.03,0.2-0.06,0.44-0.07c1.22-0.17,2.39-0.34,3.51-0.52c0.11-0.02,0.22-0.05,0.34-0.09c0.12-0.04,0.2-0.08,0.26-0.11
				l0.09-0.05c0.15-0.09,0.22-0.2,0.2-0.33c-0.02-0.13-0.11-0.25-0.29-0.35l-0.64-0.37l-0.32-0.18l-1.28-0.74
				c-0.09-0.05-0.14-0.11-0.15-0.18c-0.01-0.07,0.03-0.12,0.1-0.16c0.08-0.04,0.17-0.06,0.29-0.06c0.12,0,0.22,0.03,0.31,0.08
				l1.28,0.74l0.32,0.18l0.64,0.37c0.35,0.2,0.55,0.44,0.58,0.71c0.03,0.27-0.1,0.49-0.41,0.67c-0.12,0.07-0.26,0.13-0.44,0.19
				C112.53,390.86,112.4,390.9,112.31,390.91z"/>
			<path class="st17" d="M116.33,394.67l-0.28,0.16c-0.31,0.18-0.69,0.25-1.16,0.23c-0.46-0.02-0.87-0.13-1.23-0.33l-1.28-0.74
				c-0.35-0.2-0.55-0.44-0.58-0.71c-0.03-0.27,0.1-0.49,0.41-0.67l0.28-0.16c0.16-0.09,0.35-0.16,0.57-0.2
				c0.22-0.04,0.45-0.05,0.69-0.03c-0.03-0.14-0.02-0.27,0.05-0.4c0.07-0.13,0.18-0.24,0.34-0.33l0.28-0.16
				c0.31-0.18,0.69-0.25,1.16-0.24c0.47,0.02,0.87,0.13,1.23,0.33l1.28,0.74c0.35,0.2,0.55,0.44,0.58,0.71
				c0.03,0.27-0.1,0.49-0.41,0.67l-0.28,0.16c-0.16,0.09-0.35,0.16-0.58,0.2c-0.22,0.04-0.45,0.05-0.69,0.03
				c0.03,0.14,0.01,0.27-0.05,0.4C116.6,394.47,116.49,394.58,116.33,394.67z M117.63,393.19c0.15-0.09,0.22-0.2,0.2-0.33
				c-0.02-0.13-0.11-0.25-0.29-0.35l-1.28-0.74c-0.18-0.1-0.38-0.16-0.61-0.17c-0.23-0.01-0.42,0.03-0.58,0.12l-0.28,0.16
				c-0.15,0.09-0.22,0.2-0.2,0.33c0.02,0.13,0.11,0.25,0.29,0.35l1.28,0.74c0.18,0.1,0.38,0.16,0.61,0.17
				c0.23,0.01,0.43-0.03,0.58-0.12L117.63,393.19z M115.69,394.3c0.15-0.09,0.22-0.2,0.2-0.33s-0.11-0.25-0.29-0.35l-1.28-0.74
				c-0.18-0.1-0.38-0.16-0.61-0.17c-0.23-0.01-0.42,0.03-0.58,0.12l-0.28,0.16c-0.15,0.09-0.22,0.2-0.2,0.33
				c0.02,0.13,0.11,0.25,0.29,0.35l1.28,0.74c0.18,0.1,0.38,0.16,0.61,0.17c0.23,0.01,0.42-0.03,0.58-0.12L115.69,394.3z"/>
			<path class="st17" d="M123.89,400.63l-1.28-0.74c-0.35-0.2-0.55-0.44-0.58-0.71c-0.03-0.27,0.1-0.49,0.41-0.67
				c0.07-0.04,0.17-0.06,0.29-0.06c0.12,0,0.22,0.03,0.31,0.08c0.09,0.05,0.14,0.11,0.14,0.18c0.01,0.07-0.03,0.12-0.1,0.17
				c-0.15,0.09-0.22,0.2-0.2,0.33c0.02,0.13,0.11,0.25,0.29,0.35l1.28,0.74c0.18,0.1,0.38,0.16,0.62,0.17
				c0.23,0.01,0.43-0.03,0.58-0.12l0.7-0.41c-0.3-0.06-0.57-0.15-0.8-0.29l-1.28-0.74c-0.35-0.2-0.55-0.44-0.58-0.71
				c-0.03-0.27,0.1-0.49,0.41-0.67l0.55-0.32c0.31-0.18,0.69-0.25,1.16-0.24c0.47,0.02,0.87,0.13,1.23,0.33l1.28,0.74
				c0.36,0.21,0.55,0.44,0.58,0.71c0.03,0.27-0.1,0.49-0.41,0.67l-2.21,1.28c-0.31,0.18-0.69,0.25-1.16,0.23
				C124.65,400.95,124.24,400.84,123.89,400.63z M127.85,399.09c0.15-0.09,0.22-0.2,0.2-0.33c-0.02-0.13-0.12-0.25-0.29-0.36
				l-1.28-0.74c-0.18-0.1-0.38-0.16-0.61-0.17c-0.23-0.01-0.42,0.03-0.58,0.12l-0.55,0.32c-0.15,0.09-0.22,0.2-0.2,0.33
				c0.02,0.13,0.11,0.25,0.29,0.35l1.28,0.74c0.18,0.1,0.38,0.16,0.62,0.17c0.23,0.01,0.43-0.03,0.58-0.12L127.85,399.09z"/>
			<path class="st17" d="M128.67,403.4l-1.92-1.11c-0.09-0.05-0.13-0.11-0.14-0.18c-0.01-0.07,0.02-0.12,0.1-0.17
				c0.08-0.04,0.17-0.06,0.29-0.06c0.12,0.01,0.22,0.03,0.31,0.08l0.64,0.37l2.76-1.6c0.15-0.09,0.22-0.2,0.2-0.33
				c-0.02-0.13-0.11-0.25-0.28-0.35c0,0-0.01,0-0.01-0.01c-0.09-0.05-0.14-0.11-0.15-0.18c-0.01-0.07,0.03-0.12,0.1-0.16
				c0.08-0.04,0.17-0.06,0.29-0.06c0.12,0,0.22,0.03,0.31,0.08l0,0l0,0c0.35,0.2,0.55,0.44,0.58,0.71c0.03,0.27-0.1,0.49-0.41,0.67
				l-2.76,1.6l0.64,0.37c0.09,0.05,0.14,0.11,0.14,0.18c0.01,0.07-0.03,0.12-0.1,0.17c-0.08,0.04-0.17,0.06-0.29,0.06
				C128.86,403.47,128.76,403.45,128.67,403.4z"/>
			<path class="st17" d="M132.83,405.79l-1.28-0.74c-0.35-0.2-0.55-0.44-0.58-0.71c-0.03-0.27,0.1-0.49,0.41-0.67l2.21-1.28
				c0.31-0.18,0.69-0.25,1.16-0.24c0.47,0.02,0.87,0.13,1.23,0.33l1.28,0.74c0.35,0.2,0.55,0.44,0.58,0.71
				c0.03,0.27-0.1,0.49-0.41,0.67l-2.21,1.28c-0.31,0.18-0.69,0.25-1.16,0.24C133.59,406.11,133.18,406,132.83,405.79z
				 M132.1,404.74l1.28,0.74c0.1,0.06,0.23,0.1,0.37,0.14l0.43-2.81l-2.16,1.25c-0.15,0.09-0.22,0.2-0.2,0.33
				C131.83,404.52,131.93,404.64,132.1,404.74z M136.7,403.56l-1.28-0.74c-0.11-0.06-0.23-0.11-0.37-0.14l-0.43,2.81l2.16-1.25
				c0.15-0.09,0.22-0.2,0.2-0.33C136.97,403.78,136.87,403.66,136.7,403.56z"/>
			<path class="st17" d="M137.61,408.56l-1.92-1.11c-0.09-0.05-0.13-0.11-0.14-0.17c-0.01-0.07,0.02-0.12,0.1-0.17
				c0.08-0.04,0.17-0.06,0.29-0.06c0.12,0,0.22,0.03,0.31,0.08l0.64,0.37l2.76-1.6c0.15-0.09,0.22-0.2,0.21-0.33
				c-0.02-0.13-0.11-0.25-0.28-0.35c0,0-0.01,0-0.01-0.01c-0.09-0.05-0.14-0.11-0.15-0.18c-0.01-0.07,0.03-0.12,0.1-0.16
				c0.08-0.04,0.17-0.06,0.29-0.06c0.12,0,0.22,0.03,0.31,0.08l0,0l0,0c0.35,0.2,0.55,0.44,0.58,0.71c0.03,0.27-0.1,0.49-0.41,0.67
				l-2.76,1.6l0.64,0.37c0.09,0.05,0.14,0.11,0.14,0.18c0.01,0.07-0.03,0.12-0.1,0.17c-0.08,0.04-0.17,0.06-0.29,0.06
				C137.8,408.63,137.7,408.61,137.61,408.56z"/>
			<path class="st17" d="M146.55,413.72l-1.92-1.11c-0.09-0.05-0.13-0.11-0.14-0.18c-0.01-0.07,0.02-0.12,0.1-0.17
				c0.08-0.04,0.17-0.06,0.29-0.06c0.12,0.01,0.22,0.03,0.31,0.08l0.64,0.37l2.76-1.6c0.15-0.09,0.22-0.2,0.2-0.33
				c-0.02-0.13-0.11-0.25-0.28-0.35c0,0-0.01,0-0.01-0.01c-0.09-0.05-0.14-0.11-0.15-0.18s0.03-0.12,0.1-0.16
				c0.08-0.04,0.17-0.06,0.29-0.06c0.12,0,0.22,0.03,0.31,0.08l0,0l0,0c0.35,0.2,0.55,0.44,0.58,0.71c0.03,0.27-0.1,0.49-0.41,0.67
				l-2.76,1.6l0.64,0.37c0.09,0.05,0.14,0.11,0.14,0.18c0.01,0.07-0.03,0.12-0.1,0.17c-0.08,0.04-0.17,0.06-0.29,0.06
				C146.74,413.8,146.64,413.77,146.55,413.72z"/>
			<path class="st17" d="M152.36,415.16l-1.28-0.74c-0.18-0.1-0.38-0.16-0.61-0.17c-0.23-0.01-0.42,0.03-0.58,0.12l-0.41,0.24
				c-0.04,0.02-0.05,0.05-0.05,0.08c0,0.03,0.03,0.06,0.07,0.09l2.72,1.57c0.09,0.05,0.13,0.11,0.14,0.18
				c0.01,0.07-0.03,0.12-0.1,0.17c-0.08,0.04-0.17,0.06-0.29,0.06c-0.12-0.01-0.22-0.03-0.3-0.08l-3.2-1.85
				c-0.09-0.05-0.13-0.11-0.14-0.18c-0.01-0.07,0.02-0.12,0.1-0.17l0.83-0.48c0.31-0.18,0.69-0.25,1.16-0.24
				c0.47,0.02,0.87,0.13,1.23,0.33l1.28,0.74c0.18,0.1,0.38,0.16,0.62,0.17c0.23,0.01,0.43-0.03,0.58-0.12l0.55-0.32
				c0.15-0.09,0.22-0.2,0.2-0.33c-0.02-0.13-0.11-0.25-0.29-0.36l-1.28-0.74c-0.18-0.1-0.38-0.16-0.61-0.17
				c-0.23-0.01-0.42,0.03-0.58,0.12c-0.08,0.04-0.17,0.06-0.29,0.06c-0.11,0-0.22-0.03-0.3-0.08c-0.09-0.05-0.14-0.11-0.15-0.18
				c-0.01-0.07,0.02-0.12,0.1-0.17c0.31-0.18,0.69-0.25,1.16-0.24c0.47,0.02,0.87,0.13,1.23,0.33l1.28,0.74
				c0.36,0.21,0.55,0.44,0.58,0.71c0.03,0.27-0.1,0.49-0.41,0.67l-0.55,0.32c-0.31,0.18-0.69,0.26-1.16,0.24
				C153.13,415.48,152.72,415.36,152.36,415.16z"/>
			<path class="st17" d="M155.49,418.88l-1.92-1.11c-0.09-0.05-0.13-0.11-0.14-0.18c-0.01-0.07,0.02-0.12,0.1-0.17
				c0.08-0.04,0.17-0.06,0.29-0.06c0.12,0.01,0.22,0.03,0.31,0.08l0.64,0.37l2.76-1.6c0.15-0.09,0.22-0.2,0.2-0.33
				c-0.02-0.13-0.11-0.25-0.28-0.35c0,0-0.01,0-0.01-0.01c-0.09-0.05-0.14-0.11-0.15-0.18c-0.01-0.07,0.03-0.12,0.1-0.16
				c0.08-0.04,0.17-0.06,0.29-0.06c0.12,0,0.22,0.03,0.31,0.08l0,0l0,0c0.35,0.2,0.55,0.44,0.58,0.71c0.03,0.27-0.1,0.49-0.41,0.67
				l-2.76,1.6l0.64,0.37c0.09,0.05,0.14,0.11,0.14,0.18c0.01,0.07-0.03,0.12-0.1,0.17c-0.08,0.04-0.17,0.06-0.29,0.06
				C155.68,418.96,155.58,418.93,155.49,418.88z"/>
			<path class="st17" d="M162.3,421.22l-0.28,0.16c-0.31,0.18-0.69,0.25-1.16,0.24c-0.47-0.02-0.87-0.13-1.23-0.33l-1.28-0.74
				c-0.35-0.2-0.55-0.44-0.58-0.71c-0.03-0.27,0.1-0.49,0.41-0.67c0.07-0.04,0.17-0.06,0.29-0.06c0.12,0,0.22,0.03,0.31,0.08
				c0.09,0.05,0.14,0.11,0.15,0.18c0.01,0.07-0.02,0.12-0.1,0.17c-0.15,0.09-0.22,0.2-0.2,0.33c0.02,0.13,0.11,0.25,0.29,0.35
				l1.28,0.74c0.18,0.1,0.38,0.16,0.61,0.17c0.23,0.01,0.43-0.03,0.58-0.12l0.28-0.16c0.15-0.09,0.22-0.2,0.2-0.33
				s-0.11-0.25-0.29-0.35l-0.32-0.18c-0.09-0.05-0.14-0.11-0.15-0.18c-0.01-0.07,0.03-0.12,0.1-0.16c0.08-0.04,0.17-0.06,0.29-0.06
				c0.12,0,0.22,0.03,0.31,0.08l0.32,0.18c0.18,0.1,0.38,0.16,0.61,0.17c0.23,0.01,0.43-0.03,0.58-0.12l0.28-0.16
				c0.15-0.09,0.22-0.2,0.2-0.33c-0.02-0.13-0.11-0.25-0.29-0.35l-1.28-0.74c-0.18-0.1-0.38-0.16-0.61-0.17
				c-0.23-0.01-0.42,0.03-0.58,0.12c-0.08,0.04-0.18,0.06-0.29,0.06c-0.12-0.01-0.22-0.03-0.31-0.09c-0.09-0.05-0.14-0.11-0.14-0.18
				c-0.01-0.07,0.03-0.12,0.1-0.17c0.31-0.18,0.69-0.25,1.16-0.24c0.47,0.02,0.87,0.13,1.23,0.33l1.28,0.74
				c0.35,0.2,0.55,0.44,0.58,0.71c0.03,0.27-0.1,0.49-0.41,0.67l-0.28,0.16c-0.16,0.09-0.35,0.16-0.58,0.2
				c-0.22,0.04-0.45,0.05-0.69,0.03c0.03,0.14,0.01,0.27-0.06,0.4C162.58,421.01,162.47,421.12,162.3,421.22z"/>
		</g>
		<g>
			<g id="XMLID_832_">
				<path class="st17" d="M141.41,421.01l-1.12-0.65c-0.05-0.03-0.08-0.06-0.08-0.1c-0.01-0.04,0.01-0.07,0.06-0.1
					c0.04-0.03,0.1-0.04,0.17-0.03c0.07,0,0.13,0.02,0.18,0.05l0.37,0.22l1.61-0.93c0.09-0.05,0.13-0.12,0.12-0.19
					c-0.01-0.08-0.06-0.15-0.16-0.21c0,0,0,0-0.01,0c-0.05-0.03-0.08-0.06-0.09-0.1c0-0.04,0.02-0.07,0.06-0.1
					c0.04-0.03,0.1-0.04,0.17-0.04c0.07,0,0.13,0.02,0.18,0.05l0,0l0,0c0.21,0.12,0.32,0.26,0.34,0.41
					c0.02,0.16-0.06,0.29-0.24,0.39l-1.61,0.93l0.37,0.22c0.05,0.03,0.08,0.06,0.08,0.1c0,0.04-0.02,0.07-0.06,0.1
					c-0.04,0.03-0.1,0.04-0.17,0.03C141.52,421.05,141.46,421.04,141.41,421.01z"/>
				<path class="st17" d="M144.8,421.85l-0.75-0.43c-0.1-0.06-0.22-0.09-0.36-0.1c-0.14-0.01-0.25,0.02-0.34,0.07l-0.24,0.14
					c-0.02,0.01-0.03,0.03-0.03,0.05c0,0.02,0.02,0.04,0.04,0.05l1.59,0.92c0.05,0.03,0.08,0.06,0.08,0.1
					c0.01,0.04-0.01,0.07-0.06,0.1c-0.04,0.03-0.1,0.04-0.17,0.03c-0.07,0-0.13-0.02-0.18-0.05l-1.87-1.08
					c-0.05-0.03-0.08-0.06-0.08-0.1c-0.01-0.04,0.01-0.07,0.06-0.1l0.48-0.28c0.18-0.1,0.4-0.15,0.67-0.14
					c0.27,0.01,0.51,0.08,0.72,0.2l0.75,0.43c0.1,0.06,0.22,0.09,0.36,0.1c0.14,0.01,0.25-0.02,0.34-0.07l0.32-0.19
					c0.09-0.05,0.13-0.12,0.12-0.2c-0.01-0.08-0.07-0.15-0.17-0.21l-0.75-0.43c-0.1-0.06-0.22-0.09-0.36-0.1
					c-0.14-0.01-0.25,0.02-0.34,0.07c-0.05,0.03-0.1,0.04-0.17,0.03c-0.07,0-0.13-0.02-0.18-0.05c-0.05-0.03-0.08-0.06-0.09-0.1
					c-0.01-0.04,0.01-0.07,0.06-0.1c0.18-0.1,0.4-0.15,0.67-0.14c0.27,0.01,0.51,0.08,0.72,0.2l0.75,0.43
					c0.21,0.12,0.32,0.26,0.34,0.42c0.02,0.16-0.06,0.29-0.24,0.39l-0.32,0.19c-0.18,0.1-0.4,0.15-0.68,0.14
					C145.25,422.04,145.01,421.97,144.8,421.85z"/>
				<path class="st17" d="M149.28,424.43l-0.75-0.43c-0.1-0.06-0.22-0.09-0.36-0.1c-0.14-0.01-0.25,0.02-0.34,0.07l-0.24,0.14
					c-0.02,0.01-0.03,0.03-0.03,0.05c0,0.02,0.02,0.04,0.04,0.05l1.59,0.92c0.05,0.03,0.08,0.06,0.08,0.1c0,0.04-0.01,0.07-0.06,0.1
					c-0.04,0.03-0.1,0.04-0.17,0.03c-0.07,0-0.13-0.02-0.18-0.05l-1.87-1.08c-0.05-0.03-0.08-0.06-0.08-0.1
					c-0.01-0.04,0.01-0.07,0.06-0.1l0.48-0.28c0.18-0.1,0.4-0.15,0.67-0.14c0.27,0.01,0.51,0.08,0.72,0.2l0.75,0.43
					c0.1,0.06,0.22,0.09,0.36,0.1c0.14,0.01,0.25-0.02,0.34-0.07l0.32-0.19c0.09-0.05,0.13-0.12,0.12-0.19
					c-0.01-0.08-0.07-0.15-0.17-0.21l-0.75-0.43c-0.1-0.06-0.22-0.09-0.36-0.1c-0.14-0.01-0.25,0.02-0.34,0.07
					c-0.05,0.03-0.1,0.04-0.17,0.03c-0.07,0-0.13-0.02-0.18-0.05c-0.05-0.03-0.08-0.06-0.09-0.1c-0.01-0.04,0.01-0.07,0.06-0.1
					c0.18-0.1,0.4-0.15,0.67-0.14c0.27,0.01,0.51,0.08,0.72,0.2l0.75,0.43c0.21,0.12,0.32,0.26,0.34,0.42
					c0.02,0.16-0.06,0.29-0.24,0.39l-0.32,0.19c-0.18,0.1-0.4,0.15-0.68,0.14C149.72,424.62,149.48,424.55,149.28,424.43z"/>
				<path class="st17" d="M152.84,426.68l-0.16,0.09c-0.18,0.1-0.4,0.15-0.68,0.14c-0.27-0.01-0.51-0.08-0.72-0.2l-0.75-0.43
					c-0.21-0.12-0.32-0.26-0.34-0.41c-0.02-0.16,0.06-0.29,0.24-0.39c0.04-0.03,0.1-0.04,0.17-0.03c0.07,0,0.13,0.02,0.18,0.05
					c0.05,0.03,0.08,0.06,0.08,0.1c0,0.04-0.01,0.07-0.06,0.1c-0.09,0.05-0.13,0.12-0.12,0.19c0.01,0.08,0.07,0.15,0.17,0.21
					l0.75,0.43c0.1,0.06,0.22,0.09,0.36,0.1c0.14,0.01,0.25-0.02,0.34-0.07l0.16-0.09c0.09-0.05,0.13-0.12,0.12-0.19
					c-0.01-0.08-0.07-0.15-0.17-0.21l-0.19-0.11c-0.05-0.03-0.08-0.07-0.09-0.1c0-0.04,0.02-0.07,0.06-0.1s0.1-0.04,0.17-0.04
					c0.07,0,0.13,0.02,0.18,0.05l0.19,0.11c0.1,0.06,0.22,0.09,0.36,0.1c0.14,0.01,0.25-0.02,0.34-0.07l0.16-0.09
					c0.09-0.05,0.13-0.12,0.12-0.19c-0.01-0.08-0.07-0.15-0.17-0.21l-0.75-0.43c-0.1-0.06-0.22-0.09-0.36-0.1
					c-0.14-0.01-0.25,0.02-0.34,0.07c-0.05,0.03-0.1,0.04-0.17,0.03c-0.07,0-0.13-0.02-0.18-0.05c-0.05-0.03-0.08-0.06-0.08-0.1
					c0-0.04,0.02-0.07,0.06-0.1c0.18-0.1,0.4-0.15,0.67-0.14c0.27,0.01,0.51,0.08,0.72,0.2l0.75,0.43c0.21,0.12,0.32,0.26,0.34,0.41
					c0.02,0.16-0.06,0.29-0.24,0.39l-0.16,0.09c-0.09,0.05-0.21,0.09-0.34,0.11c-0.13,0.02-0.26,0.03-0.4,0.02
					c0.02,0.08,0.01,0.16-0.03,0.23C153,426.56,152.94,426.63,152.84,426.68z"/>
			</g>
			<g id="XMLID_831_">
				<path class="st17" d="M145.05,423.56c0,0-0.01-0.01-0.01-0.01c-0.03-0.06,0-0.14,0.07-0.16l3.24-1.35
					c0.06-0.03,0.14,0.01,0.16,0.07c0.03,0.06,0,0.14-0.07,0.16l-3.24,1.35C145.15,423.64,145.08,423.62,145.05,423.56z"/>
			</g>
		</g>
		<g id="XMLID_687_">
			<defs>
				<path id="XMLID_820_" d="M183.84,408.51l-10.84,6.26c-0.81,0.47-2.13,0.47-2.94,0l-13.23-7.54c-0.81-0.47-0.81-1.23,0-1.7
					l10.84-6.26c0.81-0.47,2.13-0.47,2.94,0c3.59,2.07,9.64,5.47,13.23,7.54C184.65,407.28,184.65,408.04,183.84,408.51z"/>
			</defs>
			<use xlink:href="#XMLID_820_"  style="overflow:visible;fill:#27DEBF;"/>
			<clipPath id="XMLID_2_">
				<use xlink:href="#XMLID_820_"  style="overflow:visible;"/>
			</clipPath>
			<path id="XMLID_830_" class="st18" d="M183.84,408.51l-10.84,6.26c-0.81,0.47-2.13,0.47-2.94,0l-13.23-7.54
				c-0.81-0.47-0.81-1.23,0-1.7l10.84-6.26c0.81-0.47,2.13-0.47,2.94,0c3.59,2.07,9.64,5.47,13.23,7.54
				C184.65,407.28,184.65,408.04,183.84,408.51z"/>
			<g id="XMLID_828_" class="st19">
				<polygon id="XMLID_829_" class="st4" points="183.44,411.74 184.43,411.54 162.76,399.13 161.76,399.32 				"/>
			</g>
			<g id="XMLID_826_" class="st19">
				<polygon id="XMLID_827_" class="st4" points="169.65,409.96 170.65,410.15 176.17,406.96 175.17,406.77 				"/>
			</g>
			<g id="XMLID_823_" class="st19">
				<polygon id="XMLID_825_" class="st4" points="164.49,407.1 165.49,407.29 171,404.11 170.01,403.92 				"/>
			</g>
			<g id="XMLID_821_" class="st19">
				<polygon id="XMLID_822_" class="st4" points="177.9,414.93 178.9,414.74 157.23,402.33 156.23,402.52 				"/>
			</g>
		</g>
		<g>
			<g>
				<path id="XMLID_686_" class="st2" d="M114.69,407.15l-51.79-29.9c-0.9-0.52-2.36-0.52-3.26,0l-0.23,0.13
					c-0.9,0.52-0.9,1.36,0,1.88l51.79,29.9c0.9,0.52,2.36,0.52,3.26,0l0.23-0.13C115.59,408.52,115.59,407.67,114.69,407.15z"/>
			</g>
		</g>
		<g>
			<path class="st4" d="M109.88,349.77c0.1-0.04,0.2-0.06,0.3-0.05c0.1,0.01,0.19,0.03,0.25,0.07l0.82,0.47
				c0.07,0.04,0.12,0.09,0.12,0.16c0.01,0.06-0.03,0.11-0.12,0.16c-0.3,0.15-0.64,0.27-1.04,0.36c-0.39,0.09-0.82,0.13-1.29,0.12
				c-0.46-0.01-0.95-0.08-1.46-0.22c-0.51-0.13-1.03-0.35-1.55-0.65c-0.46-0.27-0.81-0.55-1.02-0.83c-0.22-0.29-0.33-0.57-0.33-0.86
				c0-0.28,0.1-0.57,0.3-0.84c0.2-0.28,0.49-0.54,0.87-0.79c0.24-0.15,0.52-0.32,0.83-0.5c0.31-0.18,0.6-0.34,0.87-0.48
				c0.43-0.22,0.89-0.39,1.37-0.5c0.48-0.12,0.97-0.18,1.46-0.17c0.49,0,0.99,0.07,1.48,0.19c0.49,0.13,0.97,0.32,1.44,0.59
				c0.53,0.3,0.9,0.6,1.13,0.9c0.23,0.29,0.35,0.58,0.37,0.84c0.02,0.27-0.05,0.52-0.21,0.75c-0.16,0.23-0.37,0.43-0.61,0.59
				c-0.08,0.05-0.17,0.07-0.27,0.07c-0.11,0-0.2-0.03-0.27-0.07l-0.82-0.47c-0.07-0.04-0.11-0.09-0.13-0.15
				c-0.02-0.06,0.01-0.12,0.09-0.18c0.11-0.09,0.2-0.19,0.25-0.31c0.05-0.12,0.07-0.24,0.04-0.37c-0.03-0.13-0.11-0.27-0.24-0.42
				c-0.13-0.15-0.33-0.3-0.59-0.45c-0.26-0.15-0.53-0.26-0.81-0.33c-0.28-0.07-0.55-0.1-0.81-0.1c-0.27,0-0.53,0.04-0.79,0.1
				c-0.26,0.07-0.5,0.16-0.72,0.27c-0.27,0.14-0.56,0.3-0.87,0.48c-0.31,0.18-0.59,0.35-0.83,0.5c-0.2,0.13-0.36,0.27-0.47,0.42
				c-0.11,0.15-0.17,0.3-0.18,0.45c0,0.15,0.05,0.31,0.17,0.47c0.11,0.16,0.3,0.31,0.57,0.47c0.26,0.15,0.52,0.26,0.78,0.34
				c0.26,0.08,0.5,0.12,0.74,0.14c0.23,0.02,0.45,0.01,0.65-0.02C109.55,349.89,109.73,349.84,109.88,349.77z"/>
			<path class="st4" d="M120.14,350.13c0.84,0.48,1.28,0.97,1.33,1.44c0.05,0.48-0.27,0.92-0.97,1.32
				c-0.49,0.28-1.02,0.46-1.59,0.53c-0.57,0.07-1.16,0.03-1.77-0.13l-1.1,2.24c-0.02,0.04-0.05,0.06-0.08,0.08
				c-0.06,0.03-0.13,0.05-0.22,0.05c-0.09,0-0.16-0.02-0.22-0.05l-0.86-0.49c-0.13-0.08-0.2-0.15-0.2-0.23
				c0-0.07,0.01-0.13,0.04-0.18l1.03-2.12l-1.34-0.77l-2.35,1.36c-0.07,0.04-0.17,0.06-0.27,0.06c-0.11,0-0.2-0.02-0.27-0.06
				l-0.82-0.47c-0.07-0.04-0.11-0.1-0.11-0.16c0-0.06,0.04-0.12,0.11-0.16l6.52-3.76c0.07-0.04,0.17-0.06,0.27-0.06
				c0.11,0,0.2,0.02,0.27,0.06L120.14,350.13z M115.45,351.09l1.46,0.84c0.38,0.22,0.76,0.36,1.12,0.41
				c0.36,0.05,0.73-0.03,1.11-0.24c0.38-0.22,0.52-0.43,0.41-0.64c-0.1-0.2-0.34-0.42-0.73-0.64l-1.46-0.84L115.45,351.09z"/>
			<path class="st4" d="M122.93,358.44c0.07,0.04,0.11,0.09,0.11,0.16c0,0.06-0.04,0.12-0.11,0.16l-0.71,0.41
				c-0.07,0.04-0.17,0.06-0.27,0.06c-0.11,0-0.2-0.02-0.27-0.06l-4.43-2.56c-0.07-0.04-0.11-0.1-0.11-0.16
				c0-0.06,0.04-0.12,0.11-0.16l6.52-3.76c0.07-0.04,0.17-0.06,0.27-0.06c0.11,0,0.2,0.02,0.27,0.06l4.35,2.51
				c0.07,0.04,0.11,0.1,0.11,0.16c0,0.06-0.04,0.11-0.11,0.16l-0.72,0.41c-0.07,0.04-0.16,0.06-0.27,0.06s-0.2-0.02-0.27-0.06
				l-3.26-1.88l-1.6,0.93l3.04,1.75c0.07,0.04,0.11,0.1,0.11,0.16c0,0.06-0.04,0.11-0.11,0.16l-0.72,0.41
				c-0.07,0.04-0.17,0.06-0.27,0.06s-0.2-0.02-0.27-0.06l-3.04-1.75l-1.68,0.97L122.93,358.44z"/>
			<path class="st4" d="M133.02,357.56c0.5,0.29,0.86,0.58,1.1,0.86c0.24,0.29,0.35,0.57,0.36,0.85c0,0.28-0.1,0.56-0.31,0.83
				c-0.21,0.27-0.52,0.54-0.91,0.8c-0.47,0.3-0.97,0.59-1.49,0.86c-0.45,0.23-0.91,0.4-1.39,0.53c-0.48,0.12-0.95,0.18-1.44,0.18
				c-0.49,0-0.97-0.07-1.46-0.2c-0.49-0.13-0.98-0.34-1.46-0.62l-2.54-1.47c-0.07-0.04-0.11-0.09-0.11-0.16
				c0-0.06,0.04-0.11,0.11-0.16l6.52-3.76c0.07-0.04,0.17-0.06,0.27-0.06c0.11,0,0.2,0.02,0.27,0.06L133.02,357.56z M131.89,360.13
				c0.2-0.13,0.36-0.27,0.47-0.42c0.11-0.15,0.17-0.3,0.17-0.46s-0.07-0.32-0.2-0.49c-0.13-0.17-0.34-0.33-0.63-0.5l-1.35-0.78
				l-4.54,2.62l1.4,0.81c0.28,0.16,0.55,0.28,0.83,0.35c0.28,0.07,0.55,0.11,0.82,0.11c0.27,0,0.53-0.03,0.79-0.1
				c0.26-0.07,0.5-0.16,0.73-0.28C130.92,360.72,131.42,360.43,131.89,360.13z"/>
			<path class="st4" d="M130.57,364.3c-0.07-0.04-0.11-0.1-0.11-0.16c0-0.06,0.04-0.12,0.11-0.16l6.52-3.76
				c0.07-0.04,0.17-0.06,0.27-0.06c0.11,0,0.2,0.02,0.27,0.06l0.82,0.47c0.07,0.04,0.11,0.09,0.11,0.16c0,0.06-0.04,0.11-0.11,0.16
				l-6.52,3.76c-0.07,0.04-0.17,0.06-0.27,0.06c-0.11,0-0.2-0.02-0.27-0.06L130.57,364.3z"/>
			<path class="st4" d="M145,364.48c0.07,0.04,0.11,0.09,0.11,0.16c0,0.06-0.04,0.11-0.11,0.16l-0.72,0.41
				c-0.07,0.04-0.16,0.06-0.27,0.06c-0.11,0-0.2-0.02-0.27-0.06l-1.82-1.05l-5.53,3.19c-0.07,0.04-0.17,0.06-0.27,0.06
				c-0.11,0-0.2-0.02-0.27-0.06l-0.82-0.47c-0.07-0.04-0.11-0.1-0.11-0.16c0-0.06,0.04-0.12,0.11-0.16l5.53-3.19l-1.82-1.05
				c-0.07-0.04-0.11-0.09-0.11-0.16c0-0.06,0.04-0.11,0.11-0.16l0.72-0.41c0.07-0.04,0.17-0.06,0.27-0.06c0.11,0,0.2,0.02,0.27,0.06
				L145,364.48z"/>
			<path class="st4" d="M147.84,371.69c0.1-0.04,0.2-0.06,0.3-0.05c0.1,0.01,0.19,0.03,0.25,0.07l0.82,0.47
				c0.07,0.04,0.12,0.09,0.12,0.16c0.01,0.06-0.03,0.11-0.12,0.16c-0.3,0.15-0.64,0.27-1.03,0.36c-0.39,0.09-0.82,0.13-1.29,0.12
				c-0.46-0.01-0.95-0.08-1.46-0.22c-0.51-0.13-1.03-0.35-1.55-0.65c-0.46-0.27-0.81-0.54-1.02-0.83c-0.22-0.29-0.33-0.57-0.33-0.86
				c0-0.29,0.1-0.57,0.3-0.85c0.2-0.28,0.5-0.54,0.87-0.79c0.24-0.16,0.52-0.32,0.83-0.5c0.31-0.18,0.6-0.34,0.87-0.48
				c0.43-0.22,0.89-0.39,1.37-0.5c0.48-0.12,0.97-0.18,1.46-0.17c0.49,0,0.99,0.07,1.48,0.19c0.49,0.13,0.97,0.32,1.44,0.59
				c0.53,0.3,0.9,0.6,1.13,0.9c0.23,0.29,0.35,0.58,0.37,0.84c0.02,0.27-0.05,0.52-0.21,0.75c-0.16,0.23-0.37,0.43-0.61,0.59
				c-0.07,0.05-0.17,0.07-0.27,0.07c-0.11,0-0.2-0.03-0.27-0.07l-0.82-0.47c-0.07-0.04-0.11-0.09-0.13-0.15
				c-0.02-0.06,0.01-0.12,0.09-0.18c0.11-0.09,0.2-0.19,0.25-0.31c0.05-0.12,0.07-0.24,0.04-0.37c-0.03-0.13-0.11-0.27-0.24-0.42
				c-0.13-0.15-0.33-0.3-0.59-0.45c-0.26-0.15-0.53-0.26-0.81-0.33c-0.27-0.07-0.55-0.1-0.81-0.1c-0.27,0-0.53,0.04-0.79,0.11
				c-0.26,0.07-0.5,0.16-0.72,0.27c-0.27,0.14-0.56,0.3-0.87,0.48c-0.31,0.18-0.59,0.35-0.83,0.5c-0.2,0.13-0.36,0.27-0.47,0.42
				c-0.11,0.15-0.17,0.3-0.18,0.45c0,0.15,0.05,0.31,0.17,0.47c0.11,0.16,0.3,0.31,0.57,0.47c0.26,0.15,0.52,0.27,0.78,0.34
				c0.26,0.08,0.5,0.12,0.74,0.14c0.23,0.02,0.45,0.01,0.65-0.02C147.51,371.81,147.69,371.76,147.84,371.69z"/>
			<path class="st4" d="M158.48,372.26c0.11,0.06,0.16,0.13,0.16,0.19c0,0.06-0.04,0.14-0.12,0.23l-3.9,5.11
				c-0.01,0.02-0.03,0.03-0.06,0.05c-0.07,0.04-0.16,0.06-0.27,0.06c-0.11,0-0.2-0.02-0.27-0.06l-0.73-0.42
				c-0.13-0.08-0.2-0.15-0.2-0.21c0.01-0.06,0.02-0.12,0.06-0.16l0.69-0.9l-3.19-1.84l-1.55,0.4c-0.07,0.02-0.17,0.03-0.28,0.03
				c-0.11,0-0.23-0.04-0.37-0.11l-0.72-0.42c-0.08-0.04-0.11-0.09-0.11-0.16c0-0.06,0.04-0.11,0.11-0.16
				c0.02-0.02,0.05-0.03,0.08-0.03l8.85-2.25c0.15-0.04,0.29-0.06,0.4-0.07c0.11,0,0.22,0.03,0.33,0.09L158.48,372.26z
				 M154.6,375.14l1.77-2.3l-3.98,1.02L154.6,375.14z"/>
			<path class="st4" d="M165.14,376.11c0.84,0.48,1.28,0.97,1.33,1.44c0.05,0.48-0.27,0.92-0.97,1.32
				c-0.49,0.28-1.02,0.46-1.59,0.53c-0.57,0.07-1.16,0.03-1.77-0.13l-1.1,2.24c-0.02,0.04-0.05,0.06-0.08,0.08
				c-0.06,0.04-0.14,0.05-0.22,0.05c-0.09,0-0.16-0.02-0.22-0.05l-0.86-0.49c-0.13-0.08-0.2-0.15-0.2-0.23
				c0-0.07,0.01-0.13,0.04-0.18l1.03-2.12l-1.34-0.78l-2.35,1.36c-0.07,0.04-0.17,0.06-0.27,0.06c-0.11,0-0.2-0.02-0.27-0.06
				l-0.82-0.47c-0.07-0.04-0.11-0.09-0.11-0.16c0-0.06,0.04-0.11,0.11-0.16l6.52-3.76c0.07-0.04,0.17-0.06,0.27-0.06
				c0.11,0,0.2,0.02,0.27,0.06L165.14,376.11z M160.44,377.07l1.46,0.85c0.38,0.22,0.76,0.36,1.12,0.41
				c0.36,0.05,0.73-0.03,1.11-0.24c0.38-0.22,0.52-0.43,0.42-0.64c-0.1-0.21-0.34-0.42-0.73-0.64l-1.46-0.84L160.44,377.07z"/>
			<path class="st4" d="M171.89,380.04c0.5,0.29,0.86,0.57,1.1,0.86c0.24,0.29,0.35,0.57,0.36,0.85c0,0.28-0.1,0.56-0.31,0.83
				c-0.21,0.27-0.52,0.54-0.91,0.8c-0.47,0.3-0.97,0.59-1.49,0.86c-0.45,0.23-0.91,0.4-1.39,0.53c-0.47,0.12-0.95,0.18-1.44,0.18
				c-0.48,0-0.97-0.07-1.46-0.2c-0.49-0.13-0.98-0.34-1.46-0.62l-2.54-1.47c-0.07-0.04-0.11-0.1-0.11-0.16
				c0-0.06,0.04-0.12,0.11-0.16l6.52-3.76c0.07-0.04,0.16-0.06,0.27-0.06c0.11,0,0.2,0.02,0.27,0.06L171.89,380.04z M170.76,382.6
				c0.2-0.13,0.36-0.27,0.47-0.42c0.11-0.15,0.17-0.3,0.17-0.46s-0.06-0.32-0.2-0.49c-0.13-0.16-0.34-0.33-0.63-0.5l-1.35-0.78
				l-4.54,2.62l1.4,0.81c0.28,0.16,0.55,0.27,0.83,0.35c0.28,0.07,0.55,0.11,0.82,0.11c0.27,0,0.53-0.03,0.79-0.1
				c0.26-0.07,0.5-0.16,0.73-0.28C169.79,383.19,170.29,382.9,170.76,382.6z"/>
		</g>
	</g>
</g>
<g id="Character">
	<g id="Character_9_">
		<g>
			<path class="st20" d="M387.24,122.1c-2.91,6.26-7.89,16.62-10.62,22.36l-10.68-12.57h-8.97c0,0,10.8,23.03,17.24,28.38
				c2.42,2.01,5.46,1.77,7.37-0.44s4.33-5.49,7.23-9.96c5.1-7.87,7.38-11.28,7.38-11.28l6.43-27.01
				C396.98,111.12,391.28,113.41,387.24,122.1z"/>
			<path class="st4" d="M403.65,111.51c-3.43-0.13-7.16-0.56-10.44,2.3c-2.15,1.88-4.92,4.84-7.13,10.04
				c-2.21,5.2-5.64,11.79-5.64,11.79s2.39,3.71,6.41,6.68c4.02,2.97,7.68,3.23,7.68,3.23L403.65,111.51z"/>
			<path class="st21" d="M403.65,111.51c-3.43-0.13-7.16-0.56-10.44,2.3c-2.15,1.88-4.92,4.84-7.13,10.04
				c-2.21,5.2-5.64,11.79-5.64,11.79s2.39,3.71,6.41,6.68c4.02,2.97,7.68,3.23,7.68,3.23L403.65,111.51z"/>
			<path class="st22" d="M376.62,144.46c0,0,2.59,3.09,3.28,4.48c0,0-1.15-4.24-2.71-5.69L376.62,144.46z"/>
			<g id="XMLID_844_">
				<g id="XMLID_855_">
					<path id="XMLID_870_" class="st2" d="M354.27,115.17l-0.02,0l0.85-0.89l0,0.01c0.19-0.19,0.51-0.27,0.95-0.2l10.34,1.76
						c0.96,0.16,2.07,1.01,2.47,1.89l9.3,20.21c0.22,0.47,0.18,0.85-0.03,1.08l0.01,0l-0.88,0.92l0-0.01
						c-0.19,0.19-0.52,0.28-0.95,0.21l-10.34-1.76c-0.96-0.16-2.07-1.01-2.47-1.89c-1.83-3.97-7.47-16.24-9.3-20.21
						C353.96,115.79,354.01,115.39,354.27,115.17z"/>
					<path id="XMLID_869_" class="st5" d="M377.3,138.85l-9.3-20.21c-0.41-0.88-1.51-1.73-2.47-1.89l-10.34-1.76
						c-0.96-0.16-1.41,0.42-1,1.31c1.83,3.97,7.47,16.24,9.3,20.21c0.41,0.88,1.51,1.73,2.47,1.89l10.34,1.76
						C377.26,140.32,377.71,139.73,377.3,138.85z"/>
					<path id="XMLID_868_" class="st3" d="M366.69,117.21c0.57,0.36,1.07,0.89,1.32,1.42l9.3,20.21c0.2,0.45,0.19,0.83,0,1.06
						l0.83-0.86l-0.01-0.01c0.22-0.24,0.25-0.61,0.03-1.08l-9.3-20.22c-0.23-0.5-0.69-0.98-1.22-1.35L366.69,117.21z"/>
				</g>
			</g>
			<path id="XMLID_623_" class="st20" d="M359.16,135.16c-4.28-4.91-4.16-11.06-2.19-12.84l1.31,2.84c0,0,6.55,1.46,9.7,1.21
				c3.15-0.24,5.72-0.99,6.59-0.38c1.83,1.29,2.35,6.78-2.88,8.77C367.22,136.46,359.16,135.16,359.16,135.16z"/>
		</g>
		<g id="Botom_5_">
			<g id="XMLID_925_">
				<g id="XMLID_926_">
					<path id="XMLID_26_" class="st20" d="M434.41,296.51c-2.76,1.48-6.13,1.36-9.42,0l-1.37-17.92l10.79,1.42L434.41,296.51z"/>
					<path id="XMLID_25_" class="st20" d="M401.34,285.8c-2.33,5.05-6.55,3.65-11.3,0.42l0.83-18.01h11.45L401.34,285.8z"/>
					<g>
						<path id="XMLID_24_" class="st5" d="M414.23,313.47c-0.3,0.29-0.21,2.24,0.12,2.77c0.36,0.56,2.43,2.33,6.16,2.59
							c3.57,0.26,6.76-0.23,8.85-1.56c2.1-1.33,3.11-2.8,3.31-4.83c0.2-2.03-0.03-4,0.94-5.56c0.9-1.45,2.32-3.07,2.63-3.86
							c0.68-1.7,0.02-4.14,0.02-4.14L414.23,313.47z"/>
						<path id="XMLID_23_" class="st3" d="M424.02,295.72c-0.06,0.75-0.19,1.5-0.44,2.26c-0.52,1.58-1.3,3.06-2.19,4.47
							c-0.45,0.73-0.93,1.44-1.49,2.1c-1.08,1.28-2.42,2.34-3.56,3.57c-1.14,1.23-2.11,2.73-2.2,4.38c-0.15,2.8,2.89,3.75,5.23,4.17
							c2.5,0.44,5.16,0.31,7.6-0.38c2.71-0.77,4.67-2.87,5.12-5.58c0.13-0.78,0.08-1.57,0.17-2.35c0.21-1.78,1.13-3.41,2.18-4.9
							c0.61-0.86,1.26-1.7,1.67-2.67c0.73-1.73,0.15-3.68-0.32-5.41c-0.4-1.49-0.86-3.18-1.38-3.04c0,0.3,0.02,0.62-0.12,0.9
							c-0.17,0.32-0.3,0.5-0.41,0.88c-0.11,0.39-0.24,0.78-0.43,1.15c-0.28,0.56-0.69,1.08-1.24,1.37c-0.04-1.06-0.07-2.11-0.1-3.17
							c-0.01-0.33-0.03-0.68-0.24-0.93c-0.22-0.25-0.57-0.33-0.89-0.39c-1.98-0.37-3.99-0.74-5.99-0.5c-0.3,0.04-0.63,0.11-0.8,0.35
							c-0.14,0.2-0.14,0.47-0.13,0.72C424.06,293.75,424.1,294.74,424.02,295.72z"/>
						<path id="XMLID_22_" class="st0" d="M421.02,303.04c1.04-0.78,3.38-0.79,4.66-0.65c1.6,0.17,2.9,0.73,3.63,1.27
							c0.33,0.24,0.78,0.2,1.07-0.08l0,0c0.35-0.34,0.31-0.9-0.08-1.19c-0.78-0.57-2.19-1.38-4.09-1.51
							c-3.14-0.22-4.07,0.32-4.07,0.32S420.71,302.11,421.02,303.04z"/>
						<path id="XMLID_21_" class="st0" d="M418.62,305.91c1.31-0.77,3.88-0.66,5.16-0.53c1.6,0.17,2.8,0.8,3.53,1.34
							c0.33,0.24,0.78,0.2,1.07-0.08l0,0c0.35-0.34,0.31-0.9-0.08-1.19c-0.78-0.57-2.28-1.5-4.17-1.63
							c-3.14-0.22-3.96,0.42-3.96,0.42S418.84,304.75,418.62,305.91z"/>
						<path id="XMLID_20_" class="st0" d="M427.46,297.87c-2.17-0.22-3.09,0.02-3.95,0.33c-0.55,0.31-0.92,1.19-0.56,1.41
							c0.7-0.39,1.96-0.55,3.5-0.48c1.04,0.05,2.34,0.47,3.4,0.93c0.27,0.12,0.59,0.29,0.87,0.44c0.38,0.21,0.85,0.06,1.03-0.32l0,0
							c0.15-0.32,0.04-0.71-0.27-0.9C430.72,298.82,429.22,298.05,427.46,297.87z"/>
					</g>
					<g>
						<path id="XMLID_19_" class="st5" d="M371.28,297.32c-0.29,0.61-0.21,1.76,0.14,2.49c0.35,0.73,4.16,2.88,9.29,2.53
							c5.14-0.35,8.67-2.42,10.62-3.71c1.96-1.3,4-1.54,6.54-1.68c2.54-0.15,5.88-1.41,6.44-2.6c0.56-1.19-0.08-3.24-0.08-3.24
							L371.28,297.32z"/>
						<path id="XMLID_18_" class="st3" d="M391.93,281.52c-0.44-0.16-0.89-0.33-1.33-0.49c-0.24-0.09-0.52-0.18-0.76-0.09
							c-0.33,0.12-0.46,0.51-0.54,0.85c-0.18,0.69-0.25,1.6-0.56,2.23c-0.28,0.58-0.96,1.11-1.44,1.51
							c-1.25,1.05-2.68,1.88-4.11,2.65c-1.68,0.9-3.32,1.6-5.06,2.38c-1.77,0.8-4.11,1.28-5.5,2.21c-2.02,1.36-2.28,4.77,0.02,6.12
							c1.98,1.16,7.19,2.42,12.66,0.87c2.98-0.84,6.29-4.03,10.19-4.33c2.49-0.19,7.19-0.89,8.79-2.78c0.59-0.84-0.2-3.49-0.85-5.78
							c-0.71-2.5-0.98-6.41-1.81-6.19c-0.06,0.83-0.78,1.31-1.21,2.01c-0.39,0.62-0.6,1.32-0.89,1.99c-0.29,0.67-0.68,1.33-1.3,1.71
							c-0.62,0.38-1.51,0.41-2.01-0.11c-0.73-0.76-0.3-2.08-0.83-2.99c-0.36-0.62-1.08-0.9-1.75-1.15
							C393.07,281.94,392.5,281.73,391.93,281.52z"/>
						<path id="XMLID_17_" class="st0" d="M385.5,286.84c0,0,0.36-0.95,1.84-1.23c1.13-0.21,3.13,0.62,4.37,1.65
							c0.51,0.42,0.44,1.21-0.13,1.53l0,0c-0.34,0.19-0.76,0.14-1.06-0.12C389.7,287.96,387.87,286.68,385.5,286.84z"/>
						<path id="XMLID_16_" class="st0" d="M381.99,288.8c0,0,0.73-1.14,2.18-1.12c0,0,2.95,0.08,4.78,1.79
							c0.47,0.43,0.43,1.17-0.12,1.48l0,0c-0.33,0.18-0.74,0.13-1.02-0.12C386.98,290.1,385.33,288.55,381.99,288.8z"/>
						<path id="XMLID_15_" class="st0" d="M378.12,290.57c0,0,0.81-1.03,2.26-1.01c0,0,2.75,0.1,4.58,1.81
							c0.47,0.43,0.43,1.17-0.12,1.48l0,0c-0.33,0.18-0.74,0.13-1.02-0.12C382.99,292,381.46,290.32,378.12,290.57z"/>
					</g>
					<path id="XMLID_14_" class="st3" d="M433.04,161.62c0.65,19.61,0.6,67.05,0.6,67.05c0.21,2.44,1.2,7.45,2.01,17.22
						c1.06,12.7-1.24,40.64-1.24,40.64s-4.66,2.38-10.23,0.06c0,0-6.13-39.82-8.08-52.38c-1.71-11.04-5.06-35.83-5.06-35.83
						l-3.86,32.24c0,0,0.92,7.63-0.4,16.11c-0.9,5.78-4.9,29.54-4.9,29.54s-5.28,1.62-11.35-0.43c0,0-0.38-41.17-0.48-46.52
						c-0.12-6.1,2.7-72.52,2.7-72.52L433.04,161.62z"/>
					<path class="st5" d="M411.04,198.36l-2.9-16.07c0,0-8.04-0.7-12.48-5.19c0,0,0.79,4.39,10.9,7.03l2.9,16.26l-2.28,30.21
						L411.04,198.36z"/>
				</g>
			</g>
		</g>
		<g id="XMLID_904_">
			<path id="XMLID_924_" class="st23" d="M393.74,126.61c0.87-6.28,1.69-14.72,11.43-15.1l12.56,0.6c3.09,0.8,15.11,2.23,15.11,2.23
				l0.22,27.24c0,0,0.77,19.64,0.53,30.15c-8.99,5.7-28.55,7.55-40.84-1.78C392.38,161.27,392.88,132.83,393.74,126.61z"/>
			<g id="XMLID_905_">
				<g id="XMLID_922_">
					<g>
						<path class="st3" d="M395.35,79.19c-0.96,1.7-1.54,3.64-1.61,5.73c-0.17,5.11,2.77,9.59,7.11,11.65l-2.27,1.55l22.58,2.02
							l-0.29,5.44c0,0,1.6-0.37,2.41-1.82c0.81-1.45,3.01-10.35,3.01-10.35c2.12-4.86,3.16-9.86,1.64-11.52
							c-0.72-0.79-1.56-1.15-2.25-1.3l3.03-1.5c-0.58-1.27-2.04-1.81-3.26-1.2c-0.26,0.13-0.49,0.31-0.68,0.51
							c0.07-0.32,0.13-0.64,0.15-0.97c0.06-0.99-0.11-2.02-0.68-2.83c-0.4-0.58-0.98-1.02-1.58-1.39c-2.54-1.59-5.56-2.18-8.38-3.18
							c-1.6-0.57-3.15-1.27-4.73-1.9c-1.06-0.43-2.2-0.83-3.32-0.61c-1.12,0.22-2.14,1.33-1.85,2.43c-1.46-1.14-2.97-1.44-4.67-0.71
							c-1.4,0.61-2.48,2.11-2.28,3.68c-1.02-0.21-2.13-0.19-3.06,0.3c-0.93,0.48-1.62,1.51-1.49,2.54
							C393.05,77.01,394.15,78.23,395.35,79.19z"/>
						<path class="st20" d="M411.25,82.37c2.07-0.25,4.14-0.58,6.2-0.91c0.19-0.03,0.4-0.05,0.54,0.07c0.09,0.08,0.14,0.2,0.18,0.31
							c1.35,3.95,1.32,8.25,2.39,12.29c0.1,0.36,0.33,0.99,0.78,1.04c0.8,0.09,1.35-0.62,1.69-1.24c0.26-0.46,0.51-0.93,0.77-1.39
							c0.16-0.29,0.35-0.48,0.56-0.71c0.97-0.89,3.83-1.98,5.16,1.06c1.37,3.16-1.51,7.17-3.82,7.82c-3.98,1.11-4.49-1.44-4.49-1.44
							l-0.76,14.19c-3.52,3.68-15.09,2.4-12.8-0.79l0.15-4.32c0,0-3.59,0.43-5.32,0.1c-2.88-0.54-4.63-2.89-5.4-6.05
							c-1.25-5.08-1.11-11.3-0.13-19.02c0.12-0.98,0.39-1.86,0.71-2.66C401.72,82.95,406.65,82.92,411.25,82.37z"/>
					</g>
					<path id="XMLID_923_" class="st22" d="M407.81,108.35c0,0,6.51-1.09,8.8-2.22c1.54-0.75,2.83-2.11,3.22-2.99
						c0,0-0.49,1.9-1.89,3.59c-1.72,2.06-10.19,3.34-10.19,3.34L407.81,108.35z"/>
				</g>
				<g id="XMLID_906_">
					<path id="XMLID_921_" class="st5" d="M408.74,92.33c-0.03,0.8,0.57,1.46,1.34,1.48c0.77,0.02,1.41-0.6,1.43-1.4
						c0.03-0.8-0.57-1.46-1.34-1.48C409.41,90.91,408.77,91.53,408.74,92.33z"/>
					<path id="XMLID_920_" class="st5" d="M410.67,86.55l2.91,1.25c0.33-0.83-0.05-1.79-0.86-2.13
						C411.92,85.32,411,85.72,410.67,86.55z"/>
					<path id="XMLID_919_" class="st24" d="M410.42,99.88l-4.56,1.54c0.4,1.31,1.75,2.02,3.01,1.59
						C410.13,102.59,410.83,101.19,410.42,99.88z"/>
					<path class="st22" d="M408.87,103.02c0.81-0.27,1.37-0.95,1.58-1.74c-0.25-0.11-0.53-0.18-0.83-0.18
						c-1.1,0-1.99,0.87-2.03,1.97C408,103.17,408.44,103.17,408.87,103.02z"/>
					<path id="XMLID_918_" class="st5" d="M397.18,87.72l2.9-1.11c-0.28-0.79-1.16-1.19-1.96-0.88
						C397.32,86.04,396.9,86.93,397.18,87.72z"/>
					<path id="XMLID_912_" class="st5" d="M398.2,92.33c-0.03,0.8,0.58,1.47,1.35,1.49c0.77,0.02,1.42-0.61,1.44-1.41
						c0.03-0.8-0.58-1.47-1.35-1.49C398.87,90.9,398.23,91.53,398.2,92.33z"/>
					<path id="XMLID_910_" class="st22" d="M404.98,91.9l-0.21,7.67l-4.28-1.24l3.99-6.5C404.67,91.82,404.83,91.85,404.98,91.9z"/>
				</g>
			</g>
			<path class="st4" d="M392.21,134.42c0.34-7.96,0.96-14.98,3.92-18.71c2.96-3.73,4.56-4.44,11.58-4.33l-0.02,0.48
				c-0.82,0.07-1.53,0.47-1.99,1.16c-1.29,1.93-3.91,6.32-5.4,12c-2.04,7.73-2.39,24.99-2.49,34.29c-0.1,9.3,0,16.79,0,16.79
				s-4.7-1.1-6.16-3.45C391.65,172.64,391.87,142.38,392.21,134.42z"/>
			<path class="st10" d="M392.21,134.42c0.34-7.96,0.96-14.98,3.92-18.71c2.96-3.73,4.56-4.44,11.58-4.33l-0.02,0.48
				c-0.82,0.07-1.53,0.47-1.99,1.16c-1.29,1.93-3.91,6.32-5.4,12c-2.04,7.73-2.39,24.99-2.49,34.29c-0.1,9.3,0,16.79,0,16.79
				s-4.7-1.1-6.16-3.45C391.65,172.64,391.87,142.38,392.21,134.42z"/>
			<path class="st4" d="M416.48,121.76c1-4.24,3.07-7.03,4-9.19l8.78,1.24c3.23,1.49,7.44,5.05,7.12,8.6l-2.3,26.06l0.64,24.67
				c-5.02,7.8-19.98,6.36-19.98,6.36s-0.43-11.1,0.06-32.55C415.07,134.94,415.21,127.17,416.48,121.76z"/>
			<path class="st10" d="M416.48,121.76c1-4.24,3.07-7.03,4-9.19l8.78,1.24c3.23,1.49,7.44,5.05,7.12,8.6l-2.3,26.06l0.64,24.67
				c-5.02,7.8-19.98,6.36-19.98,6.36s-0.43-11.1,0.06-32.55C415.07,134.94,415.21,127.17,416.48,121.76z"/>
			<path class="st3" d="M416.07,123.85c0.58-2.72,0.89-7.78,1.37-8.8c0.47-1.02,3.09-3.05,3.19-4.41l0.05-0.89
				c0,0,1.06,0.12,2.19,1.13c0.82,0.73,3.25,2.42,3.25,2.42s-0.24,2.4-1.82,4.68c-1.44,2.07-3.44,3.42-3.75,2.91
				c-0.29-0.48-0.26-1.29-0.79-2.5c-0.66-1.51-0.82-2.15-1.52-0.66C417.67,118.93,416.07,123.85,416.07,123.85z"/>
			<path class="st3" d="M401.1,122.36c-0.71,2.29,1.17-7.94,2.38-9.74c1.21-1.8,4.32-2.51,4.32-2.51l-0.13,2.21
				c0,0-1.01,0.12-1.98,1.38C404.9,114.71,402.07,119.22,401.1,122.36z"/>
			<g>
				<path class="st4" d="M415.75,126.02c5.93,0.56,12.63,1.6,20.03,3.13l-0.07,0.74c-7.42-1.53-14.13-2.59-20.05-3.14
					C415.7,126.51,415.72,126.26,415.75,126.02z"/>
				<path class="st4" d="M392.83,125.86c2.19-0.26,4.68-0.48,7.41-0.62c-0.06,0.24-0.12,0.49-0.18,0.75
					c-2.7,0.14-5.16,0.36-7.31,0.62C392.77,126.36,392.8,126.1,392.83,125.86z"/>
			</g>
		</g>
		<path class="st20" d="M452.76,148.94c-9.38-23.82-11.44-31.23-18.05-33.97c-2.55-1.05-5.45-1.16-5.45-1.16
			c-1.62,2.98-4.02,14.52,3.82,22.54c0,0,5.68,14.02,8.54,20.63c-0.09,6.65,0.39,12.21-1.64,21.21c-0.21,0.95-1.37,2.54-2.26,3.03
			c-2.38,1.31-2.77,2.79-4.53,4.48c-1.38,1.32-2.58,1.62-2.37,2.06c0.26,0.57,1.31,1.5,3.04,1.07c0.87-0.22,2.3-1.15,3.68-1.93
			c0.23,0.27-1.99,3.82-4.31,6.41c-3.42,3.81-4.25,6.56,2.59,6.83c4.29,0.17,8.92-3.35,11.83-11.9c0.58-1.69,1.17-4.14,1.78-6.51
			c0.44-1.02,3.58-17.06,4.24-21.96C454.51,153.56,454.29,152.81,452.76,148.94z"/>
		<g>
			<path class="st4" d="M428.09,113.81c0,0,4.59-0.78,8.3,1.46c3.71,2.24,5,4.2,9.47,14.62c4.47,10.43,5.35,12.43,5.35,12.43
				s-2.02,5.94-13.94,6.62l-5.35-12.2c0,0-4.45-5.53-4.85-12.37C426.68,117.55,428.09,113.81,428.09,113.81z"/>
			<path class="st21" d="M428.09,113.81c0,0,4.59-0.78,8.3,1.46c3.71,2.24,5,4.2,9.47,14.62c4.47,10.43,5.35,12.43,5.35,12.43
				s-2.02,5.94-13.94,6.62l-5.35-12.2c0,0-4.45-5.53-4.85-12.37C426.68,117.55,428.09,113.81,428.09,113.81z"/>
		</g>
	</g>
</g>
</svg>
